G04 #@! TF.GenerationSoftware,KiCad,Pcbnew,(5.1.0)-1*
G04 #@! TF.CreationDate,2019-12-12T14:08:26-05:00*
G04 #@! TF.ProjectId,LEDMatrix,4c45444d-6174-4726-9978-2e6b69636164,rev?*
G04 #@! TF.SameCoordinates,Original*
G04 #@! TF.FileFunction,Legend,Top*
G04 #@! TF.FilePolarity,Positive*
%FSLAX46Y46*%
G04 Gerber Fmt 4.6, Leading zero omitted, Abs format (unit mm)*
G04 Created by KiCad (PCBNEW (5.1.0)-1) date 2019-12-12 14:08:26*
%MOMM*%
%LPD*%
G04 APERTURE LIST*
%ADD10C,0.150000*%
%ADD11C,0.300000*%
%ADD12C,0.120000*%
G04 APERTURE END LIST*
D10*
X66606066Y-78582780D02*
X66606066Y-78058971D01*
X66558447Y-77963733D01*
X66463209Y-77916114D01*
X66272733Y-77916114D01*
X66177495Y-77963733D01*
X66606066Y-78535161D02*
X66510828Y-78582780D01*
X66272733Y-78582780D01*
X66177495Y-78535161D01*
X66129876Y-78439923D01*
X66129876Y-78344685D01*
X66177495Y-78249447D01*
X66272733Y-78201828D01*
X66510828Y-78201828D01*
X66606066Y-78154209D01*
X67225114Y-78582780D02*
X67129876Y-78535161D01*
X67082257Y-78439923D01*
X67082257Y-77582780D01*
X67606066Y-78582780D02*
X67606066Y-77916114D01*
X67606066Y-78106590D02*
X67653685Y-78011352D01*
X67701304Y-77963733D01*
X67796542Y-77916114D01*
X67891780Y-77916114D01*
X68225114Y-78582780D02*
X68225114Y-77916114D01*
X68225114Y-77582780D02*
X68177495Y-77630400D01*
X68225114Y-77678019D01*
X68272733Y-77630400D01*
X68225114Y-77582780D01*
X68225114Y-77678019D01*
X69129876Y-77916114D02*
X69129876Y-78725638D01*
X69082257Y-78820876D01*
X69034638Y-78868495D01*
X68939400Y-78916114D01*
X68796542Y-78916114D01*
X68701304Y-78868495D01*
X69129876Y-78535161D02*
X69034638Y-78582780D01*
X68844161Y-78582780D01*
X68748923Y-78535161D01*
X68701304Y-78487542D01*
X68653685Y-78392304D01*
X68653685Y-78106590D01*
X68701304Y-78011352D01*
X68748923Y-77963733D01*
X68844161Y-77916114D01*
X69034638Y-77916114D01*
X69129876Y-77963733D01*
X69606066Y-78582780D02*
X69606066Y-77582780D01*
X70034638Y-78582780D02*
X70034638Y-78058971D01*
X69987019Y-77963733D01*
X69891780Y-77916114D01*
X69748923Y-77916114D01*
X69653685Y-77963733D01*
X69606066Y-78011352D01*
X70367971Y-77916114D02*
X70748923Y-77916114D01*
X70510828Y-77582780D02*
X70510828Y-78439923D01*
X70558447Y-78535161D01*
X70653685Y-78582780D01*
X70748923Y-78582780D01*
X71844161Y-78582780D02*
X71844161Y-77582780D01*
X72272733Y-78582780D02*
X72272733Y-78058971D01*
X72225114Y-77963733D01*
X72129876Y-77916114D01*
X71987019Y-77916114D01*
X71891780Y-77963733D01*
X71844161Y-78011352D01*
X73177495Y-78582780D02*
X73177495Y-78058971D01*
X73129876Y-77963733D01*
X73034638Y-77916114D01*
X72844161Y-77916114D01*
X72748923Y-77963733D01*
X73177495Y-78535161D02*
X73082257Y-78582780D01*
X72844161Y-78582780D01*
X72748923Y-78535161D01*
X72701304Y-78439923D01*
X72701304Y-78344685D01*
X72748923Y-78249447D01*
X72844161Y-78201828D01*
X73082257Y-78201828D01*
X73177495Y-78154209D01*
X73558447Y-77916114D02*
X73796542Y-78582780D01*
X74034638Y-77916114D01*
X74796542Y-78535161D02*
X74701304Y-78582780D01*
X74510828Y-78582780D01*
X74415590Y-78535161D01*
X74367971Y-78439923D01*
X74367971Y-78058971D01*
X74415590Y-77963733D01*
X74510828Y-77916114D01*
X74701304Y-77916114D01*
X74796542Y-77963733D01*
X74844161Y-78058971D01*
X74844161Y-78154209D01*
X74367971Y-78249447D01*
X75891780Y-77916114D02*
X76272733Y-77916114D01*
X76034638Y-78582780D02*
X76034638Y-77725638D01*
X76082257Y-77630400D01*
X76177495Y-77582780D01*
X76272733Y-77582780D01*
X77034638Y-77916114D02*
X77034638Y-78582780D01*
X76606066Y-77916114D02*
X76606066Y-78439923D01*
X76653685Y-78535161D01*
X76748923Y-78582780D01*
X76891780Y-78582780D01*
X76987019Y-78535161D01*
X77034638Y-78487542D01*
X77510828Y-77916114D02*
X77510828Y-78582780D01*
X77510828Y-78011352D02*
X77558447Y-77963733D01*
X77653685Y-77916114D01*
X77796542Y-77916114D01*
X77891780Y-77963733D01*
X77939400Y-78058971D01*
X77939400Y-78582780D01*
X79177495Y-78582780D02*
X79177495Y-77582780D01*
X79272733Y-78201828D02*
X79558447Y-78582780D01*
X79558447Y-77916114D02*
X79177495Y-78297066D01*
X79987019Y-78582780D02*
X79987019Y-77916114D01*
X79987019Y-77582780D02*
X79939400Y-77630400D01*
X79987019Y-77678019D01*
X80034638Y-77630400D01*
X79987019Y-77582780D01*
X79987019Y-77678019D01*
X80891780Y-78582780D02*
X80891780Y-77582780D01*
X80891780Y-78535161D02*
X80796542Y-78582780D01*
X80606066Y-78582780D01*
X80510828Y-78535161D01*
X80463209Y-78487542D01*
X80415590Y-78392304D01*
X80415590Y-78106590D01*
X80463209Y-78011352D01*
X80510828Y-77963733D01*
X80606066Y-77916114D01*
X80796542Y-77916114D01*
X80891780Y-77963733D01*
X81320352Y-78535161D02*
X81415590Y-78582780D01*
X81606066Y-78582780D01*
X81701304Y-78535161D01*
X81748923Y-78439923D01*
X81748923Y-78392304D01*
X81701304Y-78297066D01*
X81606066Y-78249447D01*
X81463209Y-78249447D01*
X81367971Y-78201828D01*
X81320352Y-78106590D01*
X81320352Y-78058971D01*
X81367971Y-77963733D01*
X81463209Y-77916114D01*
X81606066Y-77916114D01*
X81701304Y-77963733D01*
X35322238Y-77093771D02*
X35655571Y-77093771D01*
X35798428Y-77617580D02*
X35322238Y-77617580D01*
X35322238Y-76617580D01*
X35798428Y-76617580D01*
X36655571Y-77617580D02*
X36655571Y-76617580D01*
X36655571Y-77569961D02*
X36560333Y-77617580D01*
X36369857Y-77617580D01*
X36274619Y-77569961D01*
X36227000Y-77522342D01*
X36179380Y-77427104D01*
X36179380Y-77141390D01*
X36227000Y-77046152D01*
X36274619Y-76998533D01*
X36369857Y-76950914D01*
X36560333Y-76950914D01*
X36655571Y-76998533D01*
X37036523Y-76950914D02*
X37227000Y-77617580D01*
X37417476Y-77141390D01*
X37607952Y-77617580D01*
X37798428Y-76950914D01*
X38179380Y-77617580D02*
X38179380Y-76950914D01*
X38179380Y-76617580D02*
X38131761Y-76665200D01*
X38179380Y-76712819D01*
X38227000Y-76665200D01*
X38179380Y-76617580D01*
X38179380Y-76712819D01*
X38655571Y-76950914D02*
X38655571Y-77617580D01*
X38655571Y-77046152D02*
X38703190Y-76998533D01*
X38798428Y-76950914D01*
X38941285Y-76950914D01*
X39036523Y-76998533D01*
X39084142Y-77093771D01*
X39084142Y-77617580D01*
X40798428Y-77617580D02*
X40322238Y-77617580D01*
X40322238Y-76617580D01*
X41131761Y-77522342D02*
X41179380Y-77569961D01*
X41131761Y-77617580D01*
X41084142Y-77569961D01*
X41131761Y-77522342D01*
X41131761Y-77617580D01*
X35352314Y-75709471D02*
X35685647Y-75709471D01*
X35828504Y-76233280D02*
X35352314Y-76233280D01*
X35352314Y-75233280D01*
X35828504Y-75233280D01*
X36257076Y-76233280D02*
X36257076Y-75566614D01*
X36257076Y-75757090D02*
X36304695Y-75661852D01*
X36352314Y-75614233D01*
X36447552Y-75566614D01*
X36542790Y-75566614D01*
X36876123Y-76233280D02*
X36876123Y-75566614D01*
X36876123Y-75233280D02*
X36828504Y-75280900D01*
X36876123Y-75328519D01*
X36923742Y-75280900D01*
X36876123Y-75233280D01*
X36876123Y-75328519D01*
X37780885Y-76185661D02*
X37685647Y-76233280D01*
X37495171Y-76233280D01*
X37399933Y-76185661D01*
X37352314Y-76138042D01*
X37304695Y-76042804D01*
X37304695Y-75757090D01*
X37352314Y-75661852D01*
X37399933Y-75614233D01*
X37495171Y-75566614D01*
X37685647Y-75566614D01*
X37780885Y-75614233D01*
X39447552Y-76233280D02*
X38971361Y-76233280D01*
X38971361Y-75233280D01*
X39780885Y-76138042D02*
X39828504Y-76185661D01*
X39780885Y-76233280D01*
X39733266Y-76185661D01*
X39780885Y-76138042D01*
X39780885Y-76233280D01*
D11*
X35407828Y-65486671D02*
X35407828Y-63986671D01*
X35907828Y-65058100D01*
X36407828Y-63986671D01*
X36407828Y-65486671D01*
X37122114Y-65486671D02*
X37122114Y-64486671D01*
X37122114Y-64772385D02*
X37193542Y-64629528D01*
X37264971Y-64558100D01*
X37407828Y-64486671D01*
X37550685Y-64486671D01*
X38050685Y-65343814D02*
X38122114Y-65415242D01*
X38050685Y-65486671D01*
X37979257Y-65415242D01*
X38050685Y-65343814D01*
X38050685Y-65486671D01*
X40693542Y-64058100D02*
X40550685Y-63986671D01*
X40336400Y-63986671D01*
X40122114Y-64058100D01*
X39979257Y-64200957D01*
X39907828Y-64343814D01*
X39836400Y-64629528D01*
X39836400Y-64843814D01*
X39907828Y-65129528D01*
X39979257Y-65272385D01*
X40122114Y-65415242D01*
X40336400Y-65486671D01*
X40479257Y-65486671D01*
X40693542Y-65415242D01*
X40764971Y-65343814D01*
X40764971Y-64843814D01*
X40479257Y-64843814D01*
X41407828Y-65486671D02*
X41407828Y-64486671D01*
X41407828Y-64772385D02*
X41479257Y-64629528D01*
X41550685Y-64558100D01*
X41693542Y-64486671D01*
X41836400Y-64486671D01*
X42336400Y-65486671D02*
X42336400Y-64486671D01*
X42336400Y-63986671D02*
X42264971Y-64058100D01*
X42336400Y-64129528D01*
X42407828Y-64058100D01*
X42336400Y-63986671D01*
X42336400Y-64129528D01*
X43693542Y-64486671D02*
X43693542Y-65700957D01*
X43622114Y-65843814D01*
X43550685Y-65915242D01*
X43407828Y-65986671D01*
X43193542Y-65986671D01*
X43050685Y-65915242D01*
X43693542Y-65415242D02*
X43550685Y-65486671D01*
X43264971Y-65486671D01*
X43122114Y-65415242D01*
X43050685Y-65343814D01*
X42979257Y-65200957D01*
X42979257Y-64772385D01*
X43050685Y-64629528D01*
X43122114Y-64558100D01*
X43264971Y-64486671D01*
X43550685Y-64486671D01*
X43693542Y-64558100D01*
X44622114Y-65486671D02*
X44479257Y-65415242D01*
X44407828Y-65343814D01*
X44336400Y-65200957D01*
X44336400Y-64772385D01*
X44407828Y-64629528D01*
X44479257Y-64558100D01*
X44622114Y-64486671D01*
X44836400Y-64486671D01*
X44979257Y-64558100D01*
X45050685Y-64629528D01*
X45122114Y-64772385D01*
X45122114Y-65200957D01*
X45050685Y-65343814D01*
X44979257Y-65415242D01*
X44836400Y-65486671D01*
X44622114Y-65486671D01*
X45764971Y-65486671D02*
X45764971Y-64486671D01*
X45764971Y-64772385D02*
X45836400Y-64629528D01*
X45907828Y-64558100D01*
X46050685Y-64486671D01*
X46193542Y-64486671D01*
X46907828Y-65486671D02*
X46764971Y-65415242D01*
X46693542Y-65343814D01*
X46622114Y-65200957D01*
X46622114Y-64772385D01*
X46693542Y-64629528D01*
X46764971Y-64558100D01*
X46907828Y-64486671D01*
X47122114Y-64486671D01*
X47264971Y-64558100D01*
X47336400Y-64629528D01*
X47407828Y-64772385D01*
X47407828Y-65200957D01*
X47336400Y-65343814D01*
X47264971Y-65415242D01*
X47122114Y-65486671D01*
X46907828Y-65486671D01*
X47907828Y-64486671D02*
X48264971Y-65486671D01*
X48622114Y-64486671D01*
X50336400Y-65343814D02*
X50407828Y-65415242D01*
X50336400Y-65486671D01*
X50264971Y-65415242D01*
X50336400Y-65343814D01*
X50336400Y-65486671D01*
X50336400Y-64915242D02*
X50264971Y-64058100D01*
X50336400Y-63986671D01*
X50407828Y-64058100D01*
X50336400Y-64915242D01*
X50336400Y-63986671D01*
X51050685Y-65343814D02*
X51122114Y-65415242D01*
X51050685Y-65486671D01*
X50979257Y-65415242D01*
X51050685Y-65343814D01*
X51050685Y-65486671D01*
X51050685Y-64915242D02*
X50979257Y-64058100D01*
X51050685Y-63986671D01*
X51122114Y-64058100D01*
X51050685Y-64915242D01*
X51050685Y-63986671D01*
X51764971Y-65343814D02*
X51836400Y-65415242D01*
X51764971Y-65486671D01*
X51693542Y-65415242D01*
X51764971Y-65343814D01*
X51764971Y-65486671D01*
X51764971Y-64915242D02*
X51693542Y-64058100D01*
X51764971Y-63986671D01*
X51836400Y-64058100D01*
X51764971Y-64915242D01*
X51764971Y-63986671D01*
D10*
X35885880Y-74715642D02*
X35838261Y-74763261D01*
X35695404Y-74810880D01*
X35600166Y-74810880D01*
X35457309Y-74763261D01*
X35362071Y-74668023D01*
X35314452Y-74572785D01*
X35266833Y-74382309D01*
X35266833Y-74239452D01*
X35314452Y-74048976D01*
X35362071Y-73953738D01*
X35457309Y-73858500D01*
X35600166Y-73810880D01*
X35695404Y-73810880D01*
X35838261Y-73858500D01*
X35885880Y-73906119D01*
X36743023Y-74810880D02*
X36743023Y-74287071D01*
X36695404Y-74191833D01*
X36600166Y-74144214D01*
X36409690Y-74144214D01*
X36314452Y-74191833D01*
X36743023Y-74763261D02*
X36647785Y-74810880D01*
X36409690Y-74810880D01*
X36314452Y-74763261D01*
X36266833Y-74668023D01*
X36266833Y-74572785D01*
X36314452Y-74477547D01*
X36409690Y-74429928D01*
X36647785Y-74429928D01*
X36743023Y-74382309D01*
X37219214Y-74144214D02*
X37219214Y-74810880D01*
X37219214Y-74239452D02*
X37266833Y-74191833D01*
X37362071Y-74144214D01*
X37504928Y-74144214D01*
X37600166Y-74191833D01*
X37647785Y-74287071D01*
X37647785Y-74810880D01*
X38552547Y-74810880D02*
X38552547Y-73810880D01*
X38552547Y-74763261D02*
X38457309Y-74810880D01*
X38266833Y-74810880D01*
X38171595Y-74763261D01*
X38123976Y-74715642D01*
X38076357Y-74620404D01*
X38076357Y-74334690D01*
X38123976Y-74239452D01*
X38171595Y-74191833D01*
X38266833Y-74144214D01*
X38457309Y-74144214D01*
X38552547Y-74191833D01*
X39457309Y-74810880D02*
X39457309Y-74287071D01*
X39409690Y-74191833D01*
X39314452Y-74144214D01*
X39123976Y-74144214D01*
X39028738Y-74191833D01*
X39457309Y-74763261D02*
X39362071Y-74810880D01*
X39123976Y-74810880D01*
X39028738Y-74763261D01*
X38981119Y-74668023D01*
X38981119Y-74572785D01*
X39028738Y-74477547D01*
X39123976Y-74429928D01*
X39362071Y-74429928D01*
X39457309Y-74382309D01*
X40362071Y-74763261D02*
X40266833Y-74810880D01*
X40076357Y-74810880D01*
X39981119Y-74763261D01*
X39933500Y-74715642D01*
X39885880Y-74620404D01*
X39885880Y-74334690D01*
X39933500Y-74239452D01*
X39981119Y-74191833D01*
X40076357Y-74144214D01*
X40266833Y-74144214D01*
X40362071Y-74191833D01*
X41171595Y-74763261D02*
X41076357Y-74810880D01*
X40885880Y-74810880D01*
X40790642Y-74763261D01*
X40743023Y-74668023D01*
X40743023Y-74287071D01*
X40790642Y-74191833D01*
X40885880Y-74144214D01*
X41076357Y-74144214D01*
X41171595Y-74191833D01*
X41219214Y-74287071D01*
X41219214Y-74382309D01*
X40743023Y-74477547D01*
X42409690Y-74810880D02*
X42409690Y-73810880D01*
X42743023Y-74525166D01*
X43076357Y-73810880D01*
X43076357Y-74810880D01*
X43552547Y-74715642D02*
X43600166Y-74763261D01*
X43552547Y-74810880D01*
X43504928Y-74763261D01*
X43552547Y-74715642D01*
X43552547Y-74810880D01*
X35257123Y-72261480D02*
X35590457Y-73261480D01*
X35923790Y-72261480D01*
X36257123Y-73261480D02*
X36257123Y-72594814D01*
X36257123Y-72261480D02*
X36209504Y-72309100D01*
X36257123Y-72356719D01*
X36304742Y-72309100D01*
X36257123Y-72261480D01*
X36257123Y-72356719D01*
X36733314Y-73261480D02*
X36733314Y-72594814D01*
X36733314Y-72785290D02*
X36780933Y-72690052D01*
X36828552Y-72642433D01*
X36923790Y-72594814D01*
X37019028Y-72594814D01*
X37780933Y-73261480D02*
X37780933Y-72737671D01*
X37733314Y-72642433D01*
X37638076Y-72594814D01*
X37447600Y-72594814D01*
X37352361Y-72642433D01*
X37780933Y-73213861D02*
X37685695Y-73261480D01*
X37447600Y-73261480D01*
X37352361Y-73213861D01*
X37304742Y-73118623D01*
X37304742Y-73023385D01*
X37352361Y-72928147D01*
X37447600Y-72880528D01*
X37685695Y-72880528D01*
X37780933Y-72832909D01*
X38257123Y-72594814D02*
X38257123Y-73451957D01*
X38209504Y-73547195D01*
X38114266Y-73594814D01*
X38066647Y-73594814D01*
X38257123Y-72261480D02*
X38209504Y-72309100D01*
X38257123Y-72356719D01*
X38304742Y-72309100D01*
X38257123Y-72261480D01*
X38257123Y-72356719D01*
X39828552Y-72737671D02*
X39971409Y-72785290D01*
X40019028Y-72832909D01*
X40066647Y-72928147D01*
X40066647Y-73071004D01*
X40019028Y-73166242D01*
X39971409Y-73213861D01*
X39876171Y-73261480D01*
X39495219Y-73261480D01*
X39495219Y-72261480D01*
X39828552Y-72261480D01*
X39923790Y-72309100D01*
X39971409Y-72356719D01*
X40019028Y-72451957D01*
X40019028Y-72547195D01*
X39971409Y-72642433D01*
X39923790Y-72690052D01*
X39828552Y-72737671D01*
X39495219Y-72737671D01*
X40495219Y-73166242D02*
X40542838Y-73213861D01*
X40495219Y-73261480D01*
X40447600Y-73213861D01*
X40495219Y-73166242D01*
X40495219Y-73261480D01*
X35309538Y-71826380D02*
X35309538Y-70826380D01*
X35880966Y-71826380D02*
X35452395Y-71254952D01*
X35880966Y-70826380D02*
X35309538Y-71397809D01*
X36690490Y-71778761D02*
X36595252Y-71826380D01*
X36404776Y-71826380D01*
X36309538Y-71778761D01*
X36261919Y-71683523D01*
X36261919Y-71302571D01*
X36309538Y-71207333D01*
X36404776Y-71159714D01*
X36595252Y-71159714D01*
X36690490Y-71207333D01*
X36738109Y-71302571D01*
X36738109Y-71397809D01*
X36261919Y-71493047D01*
X37071442Y-71159714D02*
X37309538Y-71826380D01*
X37547633Y-71159714D01*
X37928585Y-71826380D02*
X37928585Y-71159714D01*
X37928585Y-70826380D02*
X37880966Y-70874000D01*
X37928585Y-70921619D01*
X37976204Y-70874000D01*
X37928585Y-70826380D01*
X37928585Y-70921619D01*
X38404776Y-71159714D02*
X38404776Y-71826380D01*
X38404776Y-71254952D02*
X38452395Y-71207333D01*
X38547633Y-71159714D01*
X38690490Y-71159714D01*
X38785728Y-71207333D01*
X38833347Y-71302571D01*
X38833347Y-71826380D01*
X40738109Y-71921619D02*
X40642871Y-71874000D01*
X40547633Y-71778761D01*
X40404776Y-71635904D01*
X40309538Y-71588285D01*
X40214300Y-71588285D01*
X40261919Y-71826380D02*
X40166680Y-71778761D01*
X40071442Y-71683523D01*
X40023823Y-71493047D01*
X40023823Y-71159714D01*
X40071442Y-70969238D01*
X40166680Y-70874000D01*
X40261919Y-70826380D01*
X40452395Y-70826380D01*
X40547633Y-70874000D01*
X40642871Y-70969238D01*
X40690490Y-71159714D01*
X40690490Y-71493047D01*
X40642871Y-71683523D01*
X40547633Y-71778761D01*
X40452395Y-71826380D01*
X40261919Y-71826380D01*
X41119061Y-71731142D02*
X41166680Y-71778761D01*
X41119061Y-71826380D01*
X41071442Y-71778761D01*
X41119061Y-71731142D01*
X41119061Y-71826380D01*
X35660390Y-69289680D02*
X35660390Y-70003966D01*
X35612771Y-70146823D01*
X35517533Y-70242061D01*
X35374676Y-70289680D01*
X35279438Y-70289680D01*
X36279438Y-70289680D02*
X36184200Y-70242061D01*
X36136580Y-70194442D01*
X36088961Y-70099204D01*
X36088961Y-69813490D01*
X36136580Y-69718252D01*
X36184200Y-69670633D01*
X36279438Y-69623014D01*
X36422295Y-69623014D01*
X36517533Y-69670633D01*
X36565152Y-69718252D01*
X36612771Y-69813490D01*
X36612771Y-70099204D01*
X36565152Y-70194442D01*
X36517533Y-70242061D01*
X36422295Y-70289680D01*
X36279438Y-70289680D01*
X37041342Y-70289680D02*
X37041342Y-69623014D01*
X37041342Y-69813490D02*
X37088961Y-69718252D01*
X37136580Y-69670633D01*
X37231819Y-69623014D01*
X37327057Y-69623014D01*
X38088961Y-70289680D02*
X38088961Y-69289680D01*
X38088961Y-70242061D02*
X37993723Y-70289680D01*
X37803247Y-70289680D01*
X37708009Y-70242061D01*
X37660390Y-70194442D01*
X37612771Y-70099204D01*
X37612771Y-69813490D01*
X37660390Y-69718252D01*
X37708009Y-69670633D01*
X37803247Y-69623014D01*
X37993723Y-69623014D01*
X38088961Y-69670633D01*
X38993723Y-70289680D02*
X38993723Y-69765871D01*
X38946104Y-69670633D01*
X38850866Y-69623014D01*
X38660390Y-69623014D01*
X38565152Y-69670633D01*
X38993723Y-70242061D02*
X38898485Y-70289680D01*
X38660390Y-70289680D01*
X38565152Y-70242061D01*
X38517533Y-70146823D01*
X38517533Y-70051585D01*
X38565152Y-69956347D01*
X38660390Y-69908728D01*
X38898485Y-69908728D01*
X38993723Y-69861109D01*
X39469914Y-69623014D02*
X39469914Y-70289680D01*
X39469914Y-69718252D02*
X39517533Y-69670633D01*
X39612771Y-69623014D01*
X39755628Y-69623014D01*
X39850866Y-69670633D01*
X39898485Y-69765871D01*
X39898485Y-70289680D01*
X41088961Y-70003966D02*
X41565152Y-70003966D01*
X40993723Y-70289680D02*
X41327057Y-69289680D01*
X41660390Y-70289680D01*
X41993723Y-70194442D02*
X42041342Y-70242061D01*
X41993723Y-70289680D01*
X41946104Y-70242061D01*
X41993723Y-70194442D01*
X41993723Y-70289680D01*
X35255604Y-68905380D02*
X35255604Y-67905380D01*
X35588938Y-68619666D01*
X35922271Y-67905380D01*
X35922271Y-68905380D01*
X36827033Y-68905380D02*
X36827033Y-68381571D01*
X36779414Y-68286333D01*
X36684176Y-68238714D01*
X36493700Y-68238714D01*
X36398461Y-68286333D01*
X36827033Y-68857761D02*
X36731795Y-68905380D01*
X36493700Y-68905380D01*
X36398461Y-68857761D01*
X36350842Y-68762523D01*
X36350842Y-68667285D01*
X36398461Y-68572047D01*
X36493700Y-68524428D01*
X36731795Y-68524428D01*
X36827033Y-68476809D01*
X37207985Y-68905380D02*
X37731795Y-68238714D01*
X37207985Y-68238714D02*
X37731795Y-68905380D01*
X38112747Y-68905380D02*
X38112747Y-68238714D01*
X38112747Y-67905380D02*
X38065128Y-67953000D01*
X38112747Y-68000619D01*
X38160366Y-67953000D01*
X38112747Y-67905380D01*
X38112747Y-68000619D01*
X38588938Y-68905380D02*
X38588938Y-68238714D01*
X38588938Y-68333952D02*
X38636557Y-68286333D01*
X38731795Y-68238714D01*
X38874652Y-68238714D01*
X38969890Y-68286333D01*
X39017509Y-68381571D01*
X39017509Y-68905380D01*
X39017509Y-68381571D02*
X39065128Y-68286333D01*
X39160366Y-68238714D01*
X39303223Y-68238714D01*
X39398461Y-68286333D01*
X39446080Y-68381571D01*
X39446080Y-68905380D01*
X40874652Y-67905380D02*
X41065128Y-67905380D01*
X41160366Y-67953000D01*
X41255604Y-68048238D01*
X41303223Y-68238714D01*
X41303223Y-68572047D01*
X41255604Y-68762523D01*
X41160366Y-68857761D01*
X41065128Y-68905380D01*
X40874652Y-68905380D01*
X40779414Y-68857761D01*
X40684176Y-68762523D01*
X40636557Y-68572047D01*
X40636557Y-68238714D01*
X40684176Y-68048238D01*
X40779414Y-67953000D01*
X40874652Y-67905380D01*
X41731795Y-68810142D02*
X41779414Y-68857761D01*
X41731795Y-68905380D01*
X41684176Y-68857761D01*
X41731795Y-68810142D01*
X41731795Y-68905380D01*
X35239914Y-67460761D02*
X35382771Y-67508380D01*
X35620866Y-67508380D01*
X35716104Y-67460761D01*
X35763723Y-67413142D01*
X35811342Y-67317904D01*
X35811342Y-67222666D01*
X35763723Y-67127428D01*
X35716104Y-67079809D01*
X35620866Y-67032190D01*
X35430390Y-66984571D01*
X35335152Y-66936952D01*
X35287533Y-66889333D01*
X35239914Y-66794095D01*
X35239914Y-66698857D01*
X35287533Y-66603619D01*
X35335152Y-66556000D01*
X35430390Y-66508380D01*
X35668485Y-66508380D01*
X35811342Y-66556000D01*
X36239914Y-67508380D02*
X36239914Y-66508380D01*
X36668485Y-67508380D02*
X36668485Y-66984571D01*
X36620866Y-66889333D01*
X36525628Y-66841714D01*
X36382771Y-66841714D01*
X36287533Y-66889333D01*
X36239914Y-66936952D01*
X37525628Y-67460761D02*
X37430390Y-67508380D01*
X37239914Y-67508380D01*
X37144676Y-67460761D01*
X37097057Y-67365523D01*
X37097057Y-66984571D01*
X37144676Y-66889333D01*
X37239914Y-66841714D01*
X37430390Y-66841714D01*
X37525628Y-66889333D01*
X37573247Y-66984571D01*
X37573247Y-67079809D01*
X37097057Y-67175047D01*
X38001819Y-67508380D02*
X38001819Y-66841714D01*
X38001819Y-67032190D02*
X38049438Y-66936952D01*
X38097057Y-66889333D01*
X38192295Y-66841714D01*
X38287533Y-66841714D01*
X38525628Y-66841714D02*
X38716104Y-67508380D01*
X38906580Y-67032190D01*
X39097057Y-67508380D01*
X39287533Y-66841714D01*
X39668485Y-67508380D02*
X39668485Y-66841714D01*
X39668485Y-66508380D02*
X39620866Y-66556000D01*
X39668485Y-66603619D01*
X39716104Y-66556000D01*
X39668485Y-66508380D01*
X39668485Y-66603619D01*
X40144676Y-66841714D02*
X40144676Y-67508380D01*
X40144676Y-66936952D02*
X40192295Y-66889333D01*
X40287533Y-66841714D01*
X40430390Y-66841714D01*
X40525628Y-66889333D01*
X40573247Y-66984571D01*
X40573247Y-67508380D01*
X42382771Y-67413142D02*
X42335152Y-67460761D01*
X42192295Y-67508380D01*
X42097057Y-67508380D01*
X41954200Y-67460761D01*
X41858961Y-67365523D01*
X41811342Y-67270285D01*
X41763723Y-67079809D01*
X41763723Y-66936952D01*
X41811342Y-66746476D01*
X41858961Y-66651238D01*
X41954200Y-66556000D01*
X42097057Y-66508380D01*
X42192295Y-66508380D01*
X42335152Y-66556000D01*
X42382771Y-66603619D01*
X42811342Y-67508380D02*
X42811342Y-66508380D01*
X43239914Y-67508380D02*
X43239914Y-66984571D01*
X43192295Y-66889333D01*
X43097057Y-66841714D01*
X42954200Y-66841714D01*
X42858961Y-66889333D01*
X42811342Y-66936952D01*
X43716104Y-67508380D02*
X43716104Y-66841714D01*
X43716104Y-66508380D02*
X43668485Y-66556000D01*
X43716104Y-66603619D01*
X43763723Y-66556000D01*
X43716104Y-66508380D01*
X43716104Y-66603619D01*
X44620866Y-66841714D02*
X44620866Y-67508380D01*
X44192295Y-66841714D02*
X44192295Y-67365523D01*
X44239914Y-67460761D01*
X44335152Y-67508380D01*
X44478009Y-67508380D01*
X44573247Y-67460761D01*
X44620866Y-67413142D01*
X37020714Y-138485619D02*
X37068333Y-138438000D01*
X37163571Y-138390380D01*
X37401666Y-138390380D01*
X37496904Y-138438000D01*
X37544523Y-138485619D01*
X37592142Y-138580857D01*
X37592142Y-138676095D01*
X37544523Y-138818952D01*
X36973095Y-139390380D01*
X37592142Y-139390380D01*
X38211190Y-138390380D02*
X38306428Y-138390380D01*
X38401666Y-138438000D01*
X38449285Y-138485619D01*
X38496904Y-138580857D01*
X38544523Y-138771333D01*
X38544523Y-139009428D01*
X38496904Y-139199904D01*
X38449285Y-139295142D01*
X38401666Y-139342761D01*
X38306428Y-139390380D01*
X38211190Y-139390380D01*
X38115952Y-139342761D01*
X38068333Y-139295142D01*
X38020714Y-139199904D01*
X37973095Y-139009428D01*
X37973095Y-138771333D01*
X38020714Y-138580857D01*
X38068333Y-138485619D01*
X38115952Y-138438000D01*
X38211190Y-138390380D01*
X38925476Y-138485619D02*
X38973095Y-138438000D01*
X39068333Y-138390380D01*
X39306428Y-138390380D01*
X39401666Y-138438000D01*
X39449285Y-138485619D01*
X39496904Y-138580857D01*
X39496904Y-138676095D01*
X39449285Y-138818952D01*
X38877857Y-139390380D01*
X39496904Y-139390380D01*
X40115952Y-138390380D02*
X40211190Y-138390380D01*
X40306428Y-138438000D01*
X40354047Y-138485619D01*
X40401666Y-138580857D01*
X40449285Y-138771333D01*
X40449285Y-139009428D01*
X40401666Y-139199904D01*
X40354047Y-139295142D01*
X40306428Y-139342761D01*
X40211190Y-139390380D01*
X40115952Y-139390380D01*
X40020714Y-139342761D01*
X39973095Y-139295142D01*
X39925476Y-139199904D01*
X39877857Y-139009428D01*
X39877857Y-138771333D01*
X39925476Y-138580857D01*
X39973095Y-138485619D01*
X40020714Y-138438000D01*
X40115952Y-138390380D01*
X37393761Y-136025380D02*
X37060428Y-135549190D01*
X36822333Y-136025380D02*
X36822333Y-135025380D01*
X37203285Y-135025380D01*
X37298523Y-135073000D01*
X37346142Y-135120619D01*
X37393761Y-135215857D01*
X37393761Y-135358714D01*
X37346142Y-135453952D01*
X37298523Y-135501571D01*
X37203285Y-135549190D01*
X36822333Y-135549190D01*
X37822333Y-136025380D02*
X37822333Y-135025380D01*
X37822333Y-135501571D02*
X38393761Y-135501571D01*
X38393761Y-136025380D02*
X38393761Y-135025380D01*
X38869952Y-136025380D02*
X38869952Y-135025380D01*
X38869952Y-135501571D02*
X39441380Y-135501571D01*
X39441380Y-136025380D02*
X39441380Y-135025380D01*
X39869952Y-135977761D02*
X40012809Y-136025380D01*
X40250904Y-136025380D01*
X40346142Y-135977761D01*
X40393761Y-135930142D01*
X40441380Y-135834904D01*
X40441380Y-135739666D01*
X40393761Y-135644428D01*
X40346142Y-135596809D01*
X40250904Y-135549190D01*
X40060428Y-135501571D01*
X39965190Y-135453952D01*
X39917571Y-135406333D01*
X39869952Y-135311095D01*
X39869952Y-135215857D01*
X39917571Y-135120619D01*
X39965190Y-135073000D01*
X40060428Y-135025380D01*
X40298523Y-135025380D01*
X40441380Y-135073000D01*
X35369952Y-137580142D02*
X35322333Y-137627761D01*
X35179476Y-137675380D01*
X35084238Y-137675380D01*
X34941380Y-137627761D01*
X34846142Y-137532523D01*
X34798523Y-137437285D01*
X34750904Y-137246809D01*
X34750904Y-137103952D01*
X34798523Y-136913476D01*
X34846142Y-136818238D01*
X34941380Y-136723000D01*
X35084238Y-136675380D01*
X35179476Y-136675380D01*
X35322333Y-136723000D01*
X35369952Y-136770619D01*
X35989000Y-136675380D02*
X36179476Y-136675380D01*
X36274714Y-136723000D01*
X36369952Y-136818238D01*
X36417571Y-137008714D01*
X36417571Y-137342047D01*
X36369952Y-137532523D01*
X36274714Y-137627761D01*
X36179476Y-137675380D01*
X35989000Y-137675380D01*
X35893761Y-137627761D01*
X35798523Y-137532523D01*
X35750904Y-137342047D01*
X35750904Y-137008714D01*
X35798523Y-136818238D01*
X35893761Y-136723000D01*
X35989000Y-136675380D01*
X36846142Y-137675380D02*
X36846142Y-136675380D01*
X37179476Y-137389666D01*
X37512809Y-136675380D01*
X37512809Y-137675380D01*
X37989000Y-137675380D02*
X37989000Y-136675380D01*
X38369952Y-136675380D01*
X38465190Y-136723000D01*
X38512809Y-136770619D01*
X38560428Y-136865857D01*
X38560428Y-137008714D01*
X38512809Y-137103952D01*
X38465190Y-137151571D01*
X38369952Y-137199190D01*
X37989000Y-137199190D01*
X38989000Y-137580142D02*
X39036619Y-137627761D01*
X38989000Y-137675380D01*
X38941380Y-137627761D01*
X38989000Y-137580142D01*
X38989000Y-137675380D01*
X40227095Y-137151571D02*
X40560428Y-137151571D01*
X40703285Y-137675380D02*
X40227095Y-137675380D01*
X40227095Y-136675380D01*
X40703285Y-136675380D01*
X41131857Y-137675380D02*
X41131857Y-136675380D01*
X41703285Y-137675380D01*
X41703285Y-136675380D01*
X42703285Y-136723000D02*
X42608047Y-136675380D01*
X42465190Y-136675380D01*
X42322333Y-136723000D01*
X42227095Y-136818238D01*
X42179476Y-136913476D01*
X42131857Y-137103952D01*
X42131857Y-137246809D01*
X42179476Y-137437285D01*
X42227095Y-137532523D01*
X42322333Y-137627761D01*
X42465190Y-137675380D01*
X42560428Y-137675380D01*
X42703285Y-137627761D01*
X42750904Y-137580142D01*
X42750904Y-137246809D01*
X42560428Y-137246809D01*
X43179476Y-137580142D02*
X43227095Y-137627761D01*
X43179476Y-137675380D01*
X43131857Y-137627761D01*
X43179476Y-137580142D01*
X43179476Y-137675380D01*
D12*
X55145000Y-107029000D02*
X55475000Y-107029000D01*
X55145000Y-100489000D02*
X55145000Y-107029000D01*
X55475000Y-100489000D02*
X55145000Y-100489000D01*
X57885000Y-107029000D02*
X57555000Y-107029000D01*
X57885000Y-100489000D02*
X57885000Y-107029000D01*
X57555000Y-100489000D02*
X57885000Y-100489000D01*
D10*
X35433000Y-131318000D02*
X81153000Y-131318000D01*
X81153000Y-126238000D02*
X37973000Y-126238000D01*
X81153000Y-131318000D02*
X81153000Y-126238000D01*
X35433000Y-131318000D02*
X35433000Y-128778000D01*
X36703000Y-125958000D02*
X35153000Y-125958000D01*
X35433000Y-128778000D02*
X37973000Y-128778000D01*
X37973000Y-128778000D02*
X37973000Y-126238000D01*
X35153000Y-125958000D02*
X35153000Y-127508000D01*
D12*
X73176000Y-100489000D02*
X73506000Y-100489000D01*
X73506000Y-100489000D02*
X73506000Y-107029000D01*
X73506000Y-107029000D02*
X73176000Y-107029000D01*
X71096000Y-100489000D02*
X70766000Y-100489000D01*
X70766000Y-100489000D02*
X70766000Y-107029000D01*
X70766000Y-107029000D02*
X71096000Y-107029000D01*
X52546000Y-124433000D02*
X52546000Y-124103000D01*
X46006000Y-124433000D02*
X52546000Y-124433000D01*
X46006000Y-124103000D02*
X46006000Y-124433000D01*
X52546000Y-121693000D02*
X52546000Y-122023000D01*
X46006000Y-121693000D02*
X52546000Y-121693000D01*
X46006000Y-122023000D02*
X46006000Y-121693000D01*
X65559000Y-107029000D02*
X65889000Y-107029000D01*
X65559000Y-100489000D02*
X65559000Y-107029000D01*
X65889000Y-100489000D02*
X65559000Y-100489000D01*
X68299000Y-107029000D02*
X67969000Y-107029000D01*
X68299000Y-100489000D02*
X68299000Y-107029000D01*
X67969000Y-100489000D02*
X68299000Y-100489000D01*
X52546000Y-119226000D02*
X52546000Y-118896000D01*
X46006000Y-119226000D02*
X52546000Y-119226000D01*
X46006000Y-118896000D02*
X46006000Y-119226000D01*
X52546000Y-116486000D02*
X52546000Y-116816000D01*
X46006000Y-116486000D02*
X52546000Y-116486000D01*
X46006000Y-116816000D02*
X46006000Y-116486000D01*
X62762000Y-100489000D02*
X63092000Y-100489000D01*
X63092000Y-100489000D02*
X63092000Y-107029000D01*
X63092000Y-107029000D02*
X62762000Y-107029000D01*
X60682000Y-100489000D02*
X60352000Y-100489000D01*
X60352000Y-100489000D02*
X60352000Y-107029000D01*
X60352000Y-107029000D02*
X60682000Y-107029000D01*
X52546000Y-114019000D02*
X52546000Y-113689000D01*
X46006000Y-114019000D02*
X52546000Y-114019000D01*
X46006000Y-113689000D02*
X46006000Y-114019000D01*
X52546000Y-111279000D02*
X52546000Y-111609000D01*
X46006000Y-111279000D02*
X52546000Y-111279000D01*
X46006000Y-111609000D02*
X46006000Y-111279000D01*
X46006000Y-106402000D02*
X46006000Y-106072000D01*
X46006000Y-106072000D02*
X52546000Y-106072000D01*
X52546000Y-106072000D02*
X52546000Y-106402000D01*
X46006000Y-108482000D02*
X46006000Y-108812000D01*
X46006000Y-108812000D02*
X52546000Y-108812000D01*
X52546000Y-108812000D02*
X52546000Y-108482000D01*
X37195000Y-157265000D02*
X41695000Y-157265000D01*
X35945000Y-153265000D02*
X35945000Y-154765000D01*
X41695000Y-150765000D02*
X37195000Y-150765000D01*
X42945000Y-154765000D02*
X42945000Y-153265000D01*
X52724000Y-154765000D02*
X52724000Y-153265000D01*
X51474000Y-150765000D02*
X46974000Y-150765000D01*
X45724000Y-153265000D02*
X45724000Y-154765000D01*
X46974000Y-157265000D02*
X51474000Y-157265000D01*
X68853000Y-151590000D02*
X68853000Y-150090000D01*
X67603000Y-147590000D02*
X63103000Y-147590000D01*
X61853000Y-150090000D02*
X61853000Y-151590000D01*
X63103000Y-154090000D02*
X67603000Y-154090000D01*
X76819000Y-154090000D02*
X81319000Y-154090000D01*
X75569000Y-150090000D02*
X75569000Y-151590000D01*
X81319000Y-147590000D02*
X76819000Y-147590000D01*
X82569000Y-151590000D02*
X82569000Y-150090000D01*
X70342000Y-162980000D02*
X74842000Y-162980000D01*
X69092000Y-158980000D02*
X69092000Y-160480000D01*
X74842000Y-156480000D02*
X70342000Y-156480000D01*
X76092000Y-160480000D02*
X76092000Y-158980000D01*
X60055000Y-74362000D02*
G75*
G02X58055000Y-74362000I-1000000J0D01*
G01*
X58055000Y-74362000D02*
X56405000Y-74362000D01*
X56405000Y-74362000D02*
X56405000Y-94802000D01*
X56405000Y-94802000D02*
X61705000Y-94802000D01*
X61705000Y-94802000D02*
X61705000Y-74362000D01*
X61705000Y-74362000D02*
X60055000Y-74362000D01*
X53915000Y-74302000D02*
X53915000Y-94862000D01*
X53915000Y-94862000D02*
X64195000Y-94862000D01*
X64195000Y-94862000D02*
X64195000Y-74302000D01*
X64195000Y-74302000D02*
X53915000Y-74302000D01*
X64195000Y-49791000D02*
X53915000Y-49791000D01*
X64195000Y-70351000D02*
X64195000Y-49791000D01*
X53915000Y-70351000D02*
X64195000Y-70351000D01*
X53915000Y-49791000D02*
X53915000Y-70351000D01*
X61705000Y-49851000D02*
X60055000Y-49851000D01*
X61705000Y-70291000D02*
X61705000Y-49851000D01*
X56405000Y-70291000D02*
X61705000Y-70291000D01*
X56405000Y-49851000D02*
X56405000Y-70291000D01*
X58055000Y-49851000D02*
X56405000Y-49851000D01*
X60055000Y-49851000D02*
G75*
G02X58055000Y-49851000I-1000000J0D01*
G01*
X78553000Y-66354000D02*
X81213000Y-66354000D01*
X78553000Y-63754000D02*
X78553000Y-66354000D01*
X81213000Y-63754000D02*
X81213000Y-66354000D01*
X78553000Y-63754000D02*
X81213000Y-63754000D01*
X78553000Y-62484000D02*
X78553000Y-61154000D01*
X78553000Y-61154000D02*
X79883000Y-61154000D01*
D10*
X58402142Y-155558380D02*
X57925952Y-155558380D01*
X57925952Y-154558380D01*
X58687857Y-155510761D02*
X58830714Y-155558380D01*
X59068809Y-155558380D01*
X59164047Y-155510761D01*
X59211666Y-155463142D01*
X59259285Y-155367904D01*
X59259285Y-155272666D01*
X59211666Y-155177428D01*
X59164047Y-155129809D01*
X59068809Y-155082190D01*
X58878333Y-155034571D01*
X58783095Y-154986952D01*
X58735476Y-154939333D01*
X58687857Y-154844095D01*
X58687857Y-154748857D01*
X58735476Y-154653619D01*
X58783095Y-154606000D01*
X58878333Y-154558380D01*
X59116428Y-154558380D01*
X59259285Y-154606000D01*
X60211666Y-155558380D02*
X59640238Y-155558380D01*
X59925952Y-155558380D02*
X59925952Y-154558380D01*
X59830714Y-154701238D01*
X59735476Y-154796476D01*
X59640238Y-154844095D01*
X54854047Y-159837428D02*
X55615952Y-159837428D01*
X55235000Y-160218380D02*
X55235000Y-159456476D01*
X57404095Y-75906380D02*
X57404095Y-76715904D01*
X57451714Y-76811142D01*
X57499333Y-76858761D01*
X57594571Y-76906380D01*
X57785047Y-76906380D01*
X57880285Y-76858761D01*
X57927904Y-76811142D01*
X57975523Y-76715904D01*
X57975523Y-75906380D01*
X58356476Y-75906380D02*
X58975523Y-75906380D01*
X58642190Y-76287333D01*
X58785047Y-76287333D01*
X58880285Y-76334952D01*
X58927904Y-76382571D01*
X58975523Y-76477809D01*
X58975523Y-76715904D01*
X58927904Y-76811142D01*
X58880285Y-76858761D01*
X58785047Y-76906380D01*
X58499333Y-76906380D01*
X58404095Y-76858761D01*
X58356476Y-76811142D01*
X37496714Y-101798380D02*
X36925285Y-101798380D01*
X37211000Y-101798380D02*
X37211000Y-100798380D01*
X37115761Y-100941238D01*
X37020523Y-101036476D01*
X36925285Y-101084095D01*
X78930523Y-101925380D02*
X78359095Y-101925380D01*
X78644809Y-101925380D02*
X78644809Y-100925380D01*
X78549571Y-101068238D01*
X78454333Y-101163476D01*
X78359095Y-101211095D01*
X79787666Y-100925380D02*
X79597190Y-100925380D01*
X79501952Y-100973000D01*
X79454333Y-101020619D01*
X79359095Y-101163476D01*
X79311476Y-101353952D01*
X79311476Y-101734904D01*
X79359095Y-101830142D01*
X79406714Y-101877761D01*
X79501952Y-101925380D01*
X79692428Y-101925380D01*
X79787666Y-101877761D01*
X79835285Y-101830142D01*
X79882904Y-101734904D01*
X79882904Y-101496809D01*
X79835285Y-101401571D01*
X79787666Y-101353952D01*
X79692428Y-101306333D01*
X79501952Y-101306333D01*
X79406714Y-101353952D01*
X79359095Y-101401571D01*
X79311476Y-101496809D01*
X59126380Y-102528666D02*
X58650190Y-102862000D01*
X59126380Y-103100095D02*
X58126380Y-103100095D01*
X58126380Y-102719142D01*
X58174000Y-102623904D01*
X58221619Y-102576285D01*
X58316857Y-102528666D01*
X58459714Y-102528666D01*
X58554952Y-102576285D01*
X58602571Y-102623904D01*
X58650190Y-102719142D01*
X58650190Y-103100095D01*
X58126380Y-102195333D02*
X58126380Y-101528666D01*
X59126380Y-101957238D01*
X35964904Y-122860380D02*
X35964904Y-121860380D01*
X36345857Y-121860380D01*
X36441095Y-121908000D01*
X36488714Y-121955619D01*
X36536333Y-122050857D01*
X36536333Y-122193714D01*
X36488714Y-122288952D01*
X36441095Y-122336571D01*
X36345857Y-122384190D01*
X35964904Y-122384190D01*
X37488714Y-122860380D02*
X36917285Y-122860380D01*
X37203000Y-122860380D02*
X37203000Y-121860380D01*
X37107761Y-122003238D01*
X37012523Y-122098476D01*
X36917285Y-122146095D01*
X74958380Y-102401666D02*
X74482190Y-102735000D01*
X74958380Y-102973095D02*
X73958380Y-102973095D01*
X73958380Y-102592142D01*
X74006000Y-102496904D01*
X74053619Y-102449285D01*
X74148857Y-102401666D01*
X74291714Y-102401666D01*
X74386952Y-102449285D01*
X74434571Y-102496904D01*
X74482190Y-102592142D01*
X74482190Y-102973095D01*
X74958380Y-101449285D02*
X74958380Y-102020714D01*
X74958380Y-101735000D02*
X73958380Y-101735000D01*
X74101238Y-101830238D01*
X74196476Y-101925476D01*
X74244095Y-102020714D01*
X47585333Y-121356380D02*
X47252000Y-120880190D01*
X47013904Y-121356380D02*
X47013904Y-120356380D01*
X47394857Y-120356380D01*
X47490095Y-120404000D01*
X47537714Y-120451619D01*
X47585333Y-120546857D01*
X47585333Y-120689714D01*
X47537714Y-120784952D01*
X47490095Y-120832571D01*
X47394857Y-120880190D01*
X47013904Y-120880190D01*
X47966285Y-120451619D02*
X48013904Y-120404000D01*
X48109142Y-120356380D01*
X48347238Y-120356380D01*
X48442476Y-120404000D01*
X48490095Y-120451619D01*
X48537714Y-120546857D01*
X48537714Y-120642095D01*
X48490095Y-120784952D01*
X47918666Y-121356380D01*
X48537714Y-121356380D01*
X69540380Y-102401666D02*
X69064190Y-102735000D01*
X69540380Y-102973095D02*
X68540380Y-102973095D01*
X68540380Y-102592142D01*
X68588000Y-102496904D01*
X68635619Y-102449285D01*
X68730857Y-102401666D01*
X68873714Y-102401666D01*
X68968952Y-102449285D01*
X69016571Y-102496904D01*
X69064190Y-102592142D01*
X69064190Y-102973095D01*
X68540380Y-102068333D02*
X68540380Y-101449285D01*
X68921333Y-101782619D01*
X68921333Y-101639761D01*
X68968952Y-101544523D01*
X69016571Y-101496904D01*
X69111809Y-101449285D01*
X69349904Y-101449285D01*
X69445142Y-101496904D01*
X69492761Y-101544523D01*
X69540380Y-101639761D01*
X69540380Y-101925476D01*
X69492761Y-102020714D01*
X69445142Y-102068333D01*
X47712333Y-116160379D02*
X47379000Y-115684189D01*
X47140904Y-116160379D02*
X47140904Y-115160379D01*
X47521857Y-115160379D01*
X47617095Y-115207999D01*
X47664714Y-115255618D01*
X47712333Y-115350856D01*
X47712333Y-115493713D01*
X47664714Y-115588951D01*
X47617095Y-115636570D01*
X47521857Y-115684189D01*
X47140904Y-115684189D01*
X48569476Y-115493713D02*
X48569476Y-116160379D01*
X48331380Y-115112760D02*
X48093285Y-115827046D01*
X48712333Y-115827046D01*
X64460380Y-102528666D02*
X63984190Y-102862000D01*
X64460380Y-103100095D02*
X63460380Y-103100095D01*
X63460380Y-102719142D01*
X63508000Y-102623904D01*
X63555619Y-102576285D01*
X63650857Y-102528666D01*
X63793714Y-102528666D01*
X63888952Y-102576285D01*
X63936571Y-102623904D01*
X63984190Y-102719142D01*
X63984190Y-103100095D01*
X63460380Y-101623904D02*
X63460380Y-102100095D01*
X63936571Y-102147714D01*
X63888952Y-102100095D01*
X63841333Y-102004857D01*
X63841333Y-101766761D01*
X63888952Y-101671523D01*
X63936571Y-101623904D01*
X64031809Y-101576285D01*
X64269904Y-101576285D01*
X64365142Y-101623904D01*
X64412761Y-101671523D01*
X64460380Y-101766761D01*
X64460380Y-102004857D01*
X64412761Y-102100095D01*
X64365142Y-102147714D01*
X47706332Y-110891379D02*
X47372999Y-110415189D01*
X47134903Y-110891379D02*
X47134903Y-109891379D01*
X47515856Y-109891379D01*
X47611094Y-109938999D01*
X47658713Y-109986618D01*
X47706332Y-110081856D01*
X47706332Y-110224713D01*
X47658713Y-110319951D01*
X47611094Y-110367570D01*
X47515856Y-110415189D01*
X47134903Y-110415189D01*
X48563475Y-109891379D02*
X48372999Y-109891379D01*
X48277760Y-109938999D01*
X48230141Y-109986618D01*
X48134903Y-110129475D01*
X48087284Y-110319951D01*
X48087284Y-110700903D01*
X48134903Y-110796141D01*
X48182522Y-110843760D01*
X48277760Y-110891379D01*
X48468237Y-110891379D01*
X48563475Y-110843760D01*
X48611094Y-110796141D01*
X48658713Y-110700903D01*
X48658713Y-110462808D01*
X48611094Y-110367570D01*
X48563475Y-110319951D01*
X48468237Y-110272332D01*
X48277760Y-110272332D01*
X48182522Y-110319951D01*
X48134903Y-110367570D01*
X48087284Y-110462808D01*
X47585333Y-105735380D02*
X47252000Y-105259190D01*
X47013904Y-105735380D02*
X47013904Y-104735380D01*
X47394857Y-104735380D01*
X47490095Y-104783000D01*
X47537714Y-104830619D01*
X47585333Y-104925857D01*
X47585333Y-105068714D01*
X47537714Y-105163952D01*
X47490095Y-105211571D01*
X47394857Y-105259190D01*
X47013904Y-105259190D01*
X48156761Y-105163952D02*
X48061523Y-105116333D01*
X48013904Y-105068714D01*
X47966285Y-104973476D01*
X47966285Y-104925857D01*
X48013904Y-104830619D01*
X48061523Y-104783000D01*
X48156761Y-104735380D01*
X48347238Y-104735380D01*
X48442476Y-104783000D01*
X48490095Y-104830619D01*
X48537714Y-104925857D01*
X48537714Y-104973476D01*
X48490095Y-105068714D01*
X48442476Y-105116333D01*
X48347238Y-105163952D01*
X48156761Y-105163952D01*
X48061523Y-105211571D01*
X48013904Y-105259190D01*
X47966285Y-105354428D01*
X47966285Y-105544904D01*
X48013904Y-105640142D01*
X48061523Y-105687761D01*
X48156761Y-105735380D01*
X48347238Y-105735380D01*
X48442476Y-105687761D01*
X48490095Y-105640142D01*
X48537714Y-105544904D01*
X48537714Y-105354428D01*
X48490095Y-105259190D01*
X48442476Y-105211571D01*
X48347238Y-105163952D01*
X38111666Y-150169761D02*
X38254523Y-150217380D01*
X38492619Y-150217380D01*
X38587857Y-150169761D01*
X38635476Y-150122142D01*
X38683095Y-150026904D01*
X38683095Y-149931666D01*
X38635476Y-149836428D01*
X38587857Y-149788809D01*
X38492619Y-149741190D01*
X38302142Y-149693571D01*
X38206904Y-149645952D01*
X38159285Y-149598333D01*
X38111666Y-149503095D01*
X38111666Y-149407857D01*
X38159285Y-149312619D01*
X38206904Y-149265000D01*
X38302142Y-149217380D01*
X38540238Y-149217380D01*
X38683095Y-149265000D01*
X39016428Y-149217380D02*
X39254523Y-150217380D01*
X39445000Y-149503095D01*
X39635476Y-150217380D01*
X39873571Y-149217380D01*
X40778333Y-150217380D02*
X40206904Y-150217380D01*
X40492619Y-150217380D02*
X40492619Y-149217380D01*
X40397380Y-149360238D01*
X40302142Y-149455476D01*
X40206904Y-149503095D01*
X47890666Y-150169761D02*
X48033523Y-150217380D01*
X48271619Y-150217380D01*
X48366857Y-150169761D01*
X48414476Y-150122142D01*
X48462095Y-150026904D01*
X48462095Y-149931666D01*
X48414476Y-149836428D01*
X48366857Y-149788809D01*
X48271619Y-149741190D01*
X48081142Y-149693571D01*
X47985904Y-149645952D01*
X47938285Y-149598333D01*
X47890666Y-149503095D01*
X47890666Y-149407857D01*
X47938285Y-149312619D01*
X47985904Y-149265000D01*
X48081142Y-149217380D01*
X48319238Y-149217380D01*
X48462095Y-149265000D01*
X48795428Y-149217380D02*
X49033523Y-150217380D01*
X49224000Y-149503095D01*
X49414476Y-150217380D01*
X49652571Y-149217380D01*
X49985904Y-149312619D02*
X50033523Y-149265000D01*
X50128761Y-149217380D01*
X50366857Y-149217380D01*
X50462095Y-149265000D01*
X50509714Y-149312619D01*
X50557333Y-149407857D01*
X50557333Y-149503095D01*
X50509714Y-149645952D01*
X49938285Y-150217380D01*
X50557333Y-150217380D01*
X64019666Y-146994761D02*
X64162523Y-147042380D01*
X64400619Y-147042380D01*
X64495857Y-146994761D01*
X64543476Y-146947142D01*
X64591095Y-146851904D01*
X64591095Y-146756666D01*
X64543476Y-146661428D01*
X64495857Y-146613809D01*
X64400619Y-146566190D01*
X64210142Y-146518571D01*
X64114904Y-146470952D01*
X64067285Y-146423333D01*
X64019666Y-146328095D01*
X64019666Y-146232857D01*
X64067285Y-146137619D01*
X64114904Y-146090000D01*
X64210142Y-146042380D01*
X64448238Y-146042380D01*
X64591095Y-146090000D01*
X64924428Y-146042380D02*
X65162523Y-147042380D01*
X65353000Y-146328095D01*
X65543476Y-147042380D01*
X65781571Y-146042380D01*
X66067285Y-146042380D02*
X66686333Y-146042380D01*
X66353000Y-146423333D01*
X66495857Y-146423333D01*
X66591095Y-146470952D01*
X66638714Y-146518571D01*
X66686333Y-146613809D01*
X66686333Y-146851904D01*
X66638714Y-146947142D01*
X66591095Y-146994761D01*
X66495857Y-147042380D01*
X66210142Y-147042380D01*
X66114904Y-146994761D01*
X66067285Y-146947142D01*
X77735666Y-146994761D02*
X77878523Y-147042380D01*
X78116619Y-147042380D01*
X78211857Y-146994761D01*
X78259476Y-146947142D01*
X78307095Y-146851904D01*
X78307095Y-146756666D01*
X78259476Y-146661428D01*
X78211857Y-146613809D01*
X78116619Y-146566190D01*
X77926142Y-146518571D01*
X77830904Y-146470952D01*
X77783285Y-146423333D01*
X77735666Y-146328095D01*
X77735666Y-146232857D01*
X77783285Y-146137619D01*
X77830904Y-146090000D01*
X77926142Y-146042380D01*
X78164238Y-146042380D01*
X78307095Y-146090000D01*
X78640428Y-146042380D02*
X78878523Y-147042380D01*
X79069000Y-146328095D01*
X79259476Y-147042380D01*
X79497571Y-146042380D01*
X80307095Y-146375714D02*
X80307095Y-147042380D01*
X80069000Y-145994761D02*
X79830904Y-146709047D01*
X80449952Y-146709047D01*
X71258666Y-155884761D02*
X71401523Y-155932380D01*
X71639619Y-155932380D01*
X71734857Y-155884761D01*
X71782476Y-155837142D01*
X71830095Y-155741904D01*
X71830095Y-155646666D01*
X71782476Y-155551428D01*
X71734857Y-155503809D01*
X71639619Y-155456190D01*
X71449142Y-155408571D01*
X71353904Y-155360952D01*
X71306285Y-155313333D01*
X71258666Y-155218095D01*
X71258666Y-155122857D01*
X71306285Y-155027619D01*
X71353904Y-154980000D01*
X71449142Y-154932380D01*
X71687238Y-154932380D01*
X71830095Y-154980000D01*
X72163428Y-154932380D02*
X72401523Y-155932380D01*
X72592000Y-155218095D01*
X72782476Y-155932380D01*
X73020571Y-154932380D01*
X73877714Y-154932380D02*
X73401523Y-154932380D01*
X73353904Y-155408571D01*
X73401523Y-155360952D01*
X73496761Y-155313333D01*
X73734857Y-155313333D01*
X73830095Y-155360952D01*
X73877714Y-155408571D01*
X73925333Y-155503809D01*
X73925333Y-155741904D01*
X73877714Y-155837142D01*
X73830095Y-155884761D01*
X73734857Y-155932380D01*
X73496761Y-155932380D01*
X73401523Y-155884761D01*
X73353904Y-155837142D01*
X58293095Y-72814380D02*
X58293095Y-73623904D01*
X58340714Y-73719142D01*
X58388333Y-73766761D01*
X58483571Y-73814380D01*
X58674047Y-73814380D01*
X58769285Y-73766761D01*
X58816904Y-73719142D01*
X58864523Y-73623904D01*
X58864523Y-72814380D01*
X59864523Y-73814380D02*
X59293095Y-73814380D01*
X59578809Y-73814380D02*
X59578809Y-72814380D01*
X59483571Y-72957238D01*
X59388333Y-73052476D01*
X59293095Y-73100095D01*
X58293095Y-48303380D02*
X58293095Y-49112904D01*
X58340714Y-49208142D01*
X58388333Y-49255761D01*
X58483571Y-49303380D01*
X58674047Y-49303380D01*
X58769285Y-49255761D01*
X58816904Y-49208142D01*
X58864523Y-49112904D01*
X58864523Y-48303380D01*
X59293095Y-48398619D02*
X59340714Y-48351000D01*
X59435952Y-48303380D01*
X59674047Y-48303380D01*
X59769285Y-48351000D01*
X59816904Y-48398619D01*
X59864523Y-48493857D01*
X59864523Y-48589095D01*
X59816904Y-48731952D01*
X59245476Y-49303380D01*
X59864523Y-49303380D01*
X57404095Y-40473380D02*
X57404095Y-41282904D01*
X57451714Y-41378142D01*
X57499333Y-41425761D01*
X57594571Y-41473380D01*
X57785047Y-41473380D01*
X57880285Y-41425761D01*
X57927904Y-41378142D01*
X57975523Y-41282904D01*
X57975523Y-40473380D01*
X58880285Y-40806714D02*
X58880285Y-41473380D01*
X58642190Y-40425761D02*
X58404095Y-41140047D01*
X59023142Y-41140047D01*
X78676523Y-41600380D02*
X78105095Y-41600380D01*
X78390809Y-41600380D02*
X78390809Y-40600380D01*
X78295571Y-40743238D01*
X78200333Y-40838476D01*
X78105095Y-40886095D01*
X79533666Y-40600380D02*
X79343190Y-40600380D01*
X79247952Y-40648000D01*
X79200333Y-40695619D01*
X79105095Y-40838476D01*
X79057476Y-41028952D01*
X79057476Y-41409904D01*
X79105095Y-41505142D01*
X79152714Y-41552761D01*
X79247952Y-41600380D01*
X79438428Y-41600380D01*
X79533666Y-41552761D01*
X79581285Y-41505142D01*
X79628904Y-41409904D01*
X79628904Y-41171809D01*
X79581285Y-41076571D01*
X79533666Y-41028952D01*
X79438428Y-40981333D01*
X79247952Y-40981333D01*
X79152714Y-41028952D01*
X79105095Y-41076571D01*
X79057476Y-41171809D01*
X37623714Y-41600380D02*
X37052285Y-41600380D01*
X37338000Y-41600380D02*
X37338000Y-40600380D01*
X37242761Y-40743238D01*
X37147523Y-40838476D01*
X37052285Y-40886095D01*
X79549666Y-59606380D02*
X79549666Y-60320666D01*
X79502047Y-60463523D01*
X79406809Y-60558761D01*
X79263952Y-60606380D01*
X79168714Y-60606380D01*
X80549666Y-60606380D02*
X79978238Y-60606380D01*
X80263952Y-60606380D02*
X80263952Y-59606380D01*
X80168714Y-59749238D01*
X80073476Y-59844476D01*
X79978238Y-59892095D01*
M02*
