G04 #@! TF.GenerationSoftware,KiCad,Pcbnew,(5.1.0)-1*
G04 #@! TF.CreationDate,2019-12-12T14:08:26-05:00*
G04 #@! TF.ProjectId,LEDMatrix,4c45444d-6174-4726-9978-2e6b69636164,rev?*
G04 #@! TF.SameCoordinates,Original*
G04 #@! TF.FileFunction,Copper,L1,Top*
G04 #@! TF.FilePolarity,Positive*
%FSLAX46Y46*%
G04 Gerber Fmt 4.6, Leading zero omitted, Abs format (unit mm)*
G04 Created by KiCad (PCBNEW (5.1.0)-1) date 2019-12-12 14:08:26*
%MOMM*%
%LPD*%
G04 APERTURE LIST*
%ADD10R,2.000000X2.000000*%
%ADD11C,2.000000*%
%ADD12O,1.700000X1.700000*%
%ADD13R,1.700000X1.700000*%
%ADD14O,1.600000X1.600000*%
%ADD15C,1.600000*%
%ADD16C,1.727200*%
%ADD17O,1.727200X1.727200*%
%ADD18R,1.600000X1.600000*%
%ADD19C,1.000000*%
%ADD20C,0.900000*%
%ADD21C,1.000000*%
%ADD22C,0.850000*%
G04 APERTURE END LIST*
D10*
X55245000Y-162306000D03*
D11*
X62845000Y-162306000D03*
D12*
X35433000Y-119380000D03*
X35433000Y-106680000D03*
X35433000Y-114300000D03*
X35433000Y-104140000D03*
D13*
X35433000Y-101600000D03*
D12*
X35433000Y-109220000D03*
X35433000Y-116840000D03*
X35433000Y-111760000D03*
X81153000Y-106680000D03*
X81153000Y-114300000D03*
X81153000Y-104140000D03*
X81153000Y-111760000D03*
X81153000Y-109220000D03*
X81153000Y-116840000D03*
X81153000Y-119380000D03*
X81153000Y-101600000D03*
D14*
X56515000Y-107569000D03*
D15*
X56515000Y-99949000D03*
D16*
X36703000Y-127508000D03*
D17*
X36703000Y-130048000D03*
X39243000Y-127508000D03*
X39243000Y-130048000D03*
X41783000Y-127508000D03*
X41783000Y-130048000D03*
X44323000Y-127508000D03*
X44323000Y-130048000D03*
X46863000Y-127508000D03*
X46863000Y-130048000D03*
X49403000Y-127508000D03*
X49403000Y-130048000D03*
X51943000Y-127508000D03*
X51943000Y-130048000D03*
X54483000Y-127508000D03*
X54483000Y-130048000D03*
X57023000Y-127508000D03*
X57023000Y-130048000D03*
X59563000Y-127508000D03*
X59563000Y-130048000D03*
X62103000Y-127508000D03*
X62103000Y-130048000D03*
X64643000Y-127508000D03*
X64643000Y-130048000D03*
X67183000Y-127508000D03*
X67183000Y-130048000D03*
X69723000Y-127508000D03*
X69723000Y-130048000D03*
X72263000Y-127508000D03*
X72263000Y-130048000D03*
X74803000Y-127508000D03*
X74803000Y-130048000D03*
X77343000Y-127508000D03*
X77343000Y-130048000D03*
X79883000Y-127508000D03*
X79883000Y-130048000D03*
D15*
X72136000Y-99949000D03*
D14*
X72136000Y-107569000D03*
X53086000Y-123063000D03*
D15*
X45466000Y-123063000D03*
D14*
X66929000Y-107569000D03*
D15*
X66929000Y-99949000D03*
D14*
X53086000Y-117856000D03*
D15*
X45466000Y-117856000D03*
X61722000Y-99949000D03*
D14*
X61722000Y-107569000D03*
X53086000Y-112649000D03*
D15*
X45466000Y-112649000D03*
X45466000Y-107442000D03*
D14*
X53086000Y-107442000D03*
D15*
X51181000Y-136144000D03*
D14*
X51181000Y-143764000D03*
X55245000Y-143764000D03*
D15*
X55245000Y-136144000D03*
D14*
X59690000Y-143764000D03*
D15*
X59690000Y-136144000D03*
X64135000Y-136144000D03*
D14*
X64135000Y-143764000D03*
D15*
X68707000Y-136144000D03*
D14*
X68707000Y-143764000D03*
D11*
X36195000Y-156265000D03*
X36195000Y-151765000D03*
X42695000Y-156265000D03*
X42695000Y-151765000D03*
X52474000Y-151765000D03*
X52474000Y-156265000D03*
X45974000Y-151765000D03*
X45974000Y-156265000D03*
X68603000Y-148590000D03*
X68603000Y-153090000D03*
X62103000Y-148590000D03*
X62103000Y-153090000D03*
X75819000Y-153090000D03*
X75819000Y-148590000D03*
X82319000Y-153090000D03*
X82319000Y-148590000D03*
X69342000Y-161980000D03*
X69342000Y-157480000D03*
X75842000Y-161980000D03*
X75842000Y-157480000D03*
D18*
X55245000Y-75692000D03*
D14*
X62865000Y-93472000D03*
X55245000Y-78232000D03*
X62865000Y-90932000D03*
X55245000Y-80772000D03*
X62865000Y-88392000D03*
X55245000Y-83312000D03*
X62865000Y-85852000D03*
X55245000Y-85852000D03*
X62865000Y-83312000D03*
X55245000Y-88392000D03*
X62865000Y-80772000D03*
X55245000Y-90932000D03*
X62865000Y-78232000D03*
X55245000Y-93472000D03*
X62865000Y-75692000D03*
X62865000Y-51181000D03*
X55245000Y-68961000D03*
X62865000Y-53721000D03*
X55245000Y-66421000D03*
X62865000Y-56261000D03*
X55245000Y-63881000D03*
X62865000Y-58801000D03*
X55245000Y-61341000D03*
X62865000Y-61341000D03*
X55245000Y-58801000D03*
X62865000Y-63881000D03*
X55245000Y-56261000D03*
X62865000Y-66421000D03*
X55245000Y-53721000D03*
X62865000Y-68961000D03*
D18*
X55245000Y-51181000D03*
D12*
X81153000Y-41148000D03*
X81153000Y-58928000D03*
X81153000Y-56388000D03*
X81153000Y-48768000D03*
X81153000Y-51308000D03*
X81153000Y-43688000D03*
X81153000Y-53848000D03*
X81153000Y-46228000D03*
X35433000Y-51308000D03*
X35433000Y-56388000D03*
X35433000Y-48768000D03*
D13*
X35433000Y-41148000D03*
D12*
X35433000Y-43688000D03*
X35433000Y-53848000D03*
X35433000Y-46228000D03*
X35433000Y-58928000D03*
D13*
X79883000Y-62484000D03*
D12*
X79883000Y-65024000D03*
D19*
X38227000Y-123571000D03*
X44390981Y-77216000D03*
X61189999Y-71095999D03*
X61846989Y-102999011D03*
D20*
X70760990Y-53848000D03*
X48516011Y-61468000D03*
X45339000Y-61468000D03*
X69385980Y-56769000D03*
D19*
X49941499Y-100487499D03*
D20*
X70104000Y-48768000D03*
D19*
X62992000Y-96139000D03*
X41283031Y-105283000D03*
X52959000Y-92456000D03*
X39359205Y-105304990D03*
X37577819Y-105141819D03*
X42437778Y-51288222D03*
X38354000Y-59309000D03*
X75057000Y-118512990D03*
X75057000Y-119888000D03*
X56324500Y-113855500D03*
D20*
X53213000Y-105283000D03*
D19*
X53213000Y-98573990D03*
X42418000Y-90551000D03*
X42799000Y-102743000D03*
X61468000Y-115316000D03*
X73596500Y-113982500D03*
X76708000Y-107315000D03*
X74295000Y-101600000D03*
X73787000Y-72898000D03*
X62768000Y-116459000D03*
X74422000Y-115316000D03*
X77978000Y-108458000D03*
X76327000Y-101324000D03*
X73533000Y-60579000D03*
X56814991Y-98044000D03*
X66167000Y-84074000D03*
X66167000Y-67183000D03*
X81153000Y-98806000D03*
X76962000Y-124587000D03*
X42366000Y-125415902D03*
X35052000Y-124841000D03*
X45563000Y-124968000D03*
X43666000Y-118491000D03*
X45765991Y-100502991D03*
D21*
X41783000Y-130048000D02*
X40919401Y-130911599D01*
X40919401Y-130911599D02*
X40005000Y-131826000D01*
X34964399Y-130882529D02*
X34964399Y-126706601D01*
X40005000Y-131826000D02*
X35907870Y-131826000D01*
X35907870Y-131826000D02*
X34964399Y-130882529D01*
X48257886Y-72641989D02*
X57314548Y-72641989D01*
D22*
X34964399Y-126706601D02*
X35091399Y-126706601D01*
X35091399Y-126706601D02*
X38227000Y-123571000D01*
D21*
X44390981Y-76508894D02*
X48257886Y-72641989D01*
X44390981Y-77216000D02*
X44390981Y-76508894D01*
X58860538Y-71095999D02*
X61189999Y-71095999D01*
X57314548Y-72641989D02*
X58860538Y-71095999D01*
X79502000Y-99949000D02*
X81153000Y-101600000D01*
X72136000Y-99949000D02*
X79502000Y-99949000D01*
X51410999Y-117118001D02*
X45466000Y-123063000D01*
X61846989Y-102999011D02*
X52984915Y-102999011D01*
X51410999Y-104572927D02*
X51410999Y-117118001D01*
X52984915Y-102999011D02*
X51410999Y-104572927D01*
X73811001Y-106831001D02*
X73811001Y-106958001D01*
X66929000Y-99949000D02*
X73811001Y-106831001D01*
X71397386Y-53848000D02*
X81153000Y-53848000D01*
X70760990Y-53848000D02*
X71397386Y-53848000D01*
X79950919Y-114300000D02*
X81153000Y-114300000D01*
X79208443Y-114300000D02*
X79950919Y-114300000D01*
X73811001Y-106831001D02*
X73811001Y-110093445D01*
X78017556Y-114300000D02*
X79950919Y-114300000D01*
X73811001Y-110093445D02*
X78017556Y-114300000D01*
X48516011Y-61468000D02*
X47879615Y-61468000D01*
X47879615Y-61468000D02*
X45339000Y-61468000D01*
X41910000Y-114300000D02*
X45466000Y-117856000D01*
X35433000Y-114300000D02*
X41910000Y-114300000D01*
X78613000Y-116840000D02*
X81153000Y-116840000D01*
X61722000Y-99949000D02*
X78613000Y-116840000D01*
X80772000Y-56769000D02*
X81153000Y-56388000D01*
X69385980Y-56769000D02*
X80772000Y-56769000D01*
X38862000Y-112649000D02*
X35433000Y-109220000D01*
X45466000Y-112649000D02*
X38862000Y-112649000D01*
X43748998Y-106680000D02*
X35433000Y-106680000D01*
X56515000Y-99949000D02*
X50479998Y-99949000D01*
X50479998Y-99949000D02*
X49941499Y-100487499D01*
X49941499Y-100487499D02*
X43748998Y-106680000D01*
X72517000Y-48768000D02*
X70104000Y-48768000D01*
X81153000Y-48768000D02*
X72517000Y-48768000D01*
X57567997Y-101624001D02*
X60917999Y-98273999D01*
X67981997Y-98273999D02*
X70760990Y-101052992D01*
X70760990Y-101836434D02*
X75186009Y-106261453D01*
X75186009Y-106261453D02*
X75186009Y-109523897D01*
X80303001Y-110069999D02*
X81153000Y-109220000D01*
X52415369Y-101624001D02*
X57567997Y-101624001D01*
X79441001Y-110931999D02*
X80303001Y-110069999D01*
X70760990Y-101052992D02*
X70760990Y-101836434D01*
X60917999Y-98273999D02*
X67981997Y-98273999D01*
X76594111Y-110931999D02*
X79441001Y-110931999D01*
X75186009Y-109523897D02*
X76594111Y-110931999D01*
X46597370Y-107442000D02*
X52415369Y-101624001D01*
X45466000Y-107442000D02*
X46597370Y-107442000D01*
X60917999Y-98273999D02*
X60917999Y-98213001D01*
X63119000Y-96012000D02*
X63119000Y-96012000D01*
X60917999Y-98213001D02*
X62992000Y-96139000D01*
X62992000Y-96139000D02*
X63119000Y-96012000D01*
X56920001Y-79907001D02*
X56920001Y-94276001D01*
X47814223Y-95147001D02*
X41283031Y-101678193D01*
X41283031Y-101678193D02*
X41283031Y-105283000D01*
X55245000Y-78232000D02*
X56920001Y-79907001D01*
X56920001Y-94276001D02*
X56049001Y-95147001D01*
X56049001Y-95147001D02*
X47814223Y-95147001D01*
X35433000Y-99750000D02*
X35433000Y-101600000D01*
X51871000Y-83312000D02*
X35433000Y-99750000D01*
X55245000Y-83312000D02*
X51871000Y-83312000D01*
X52959000Y-92456000D02*
X48560668Y-92456000D01*
X48560668Y-92456000D02*
X39908021Y-101108647D01*
X39908021Y-104998979D02*
X39602010Y-105304990D01*
X39908021Y-101108647D02*
X39908021Y-104998979D01*
X39602010Y-105304990D02*
X39359205Y-105304990D01*
X36635081Y-104140000D02*
X35433000Y-104140000D01*
X48735556Y-88392000D02*
X37117779Y-100009777D01*
X37117779Y-100009777D02*
X37158001Y-100049999D01*
X55245000Y-88392000D02*
X48735556Y-88392000D01*
X37158001Y-103617080D02*
X36635081Y-104140000D01*
X37158001Y-100049999D02*
X37158001Y-103617080D01*
X55245000Y-90932000D02*
X48140112Y-90932000D01*
X38533011Y-100539101D02*
X38533011Y-104186627D01*
X48140112Y-90932000D02*
X38533011Y-100539101D01*
X38533011Y-104186627D02*
X37577819Y-105141819D01*
X37577819Y-105141819D02*
X37414648Y-105304990D01*
X82002999Y-118530001D02*
X81153000Y-119380000D01*
X82878001Y-117654999D02*
X82002999Y-118530001D01*
X82878001Y-98245001D02*
X82878001Y-117654999D01*
X62865000Y-78232000D02*
X82878001Y-98245001D01*
X68072000Y-58928000D02*
X81153000Y-58928000D01*
X62865000Y-53721000D02*
X68072000Y-58928000D01*
X35452778Y-51288222D02*
X35433000Y-51308000D01*
X42437778Y-51288222D02*
X35452778Y-51288222D01*
D22*
X53213000Y-59309000D02*
X55245000Y-61341000D01*
X38354000Y-59309000D02*
X53213000Y-59309000D01*
D21*
X79950919Y-51308000D02*
X81153000Y-51308000D01*
X68897442Y-49505999D02*
X70699443Y-51308000D01*
X70699443Y-51308000D02*
X79950919Y-51308000D01*
X62000001Y-49505999D02*
X68897442Y-49505999D01*
X55245000Y-56261000D02*
X62000001Y-49505999D01*
X40640000Y-53721000D02*
X35433000Y-58928000D01*
X55245000Y-53721000D02*
X40640000Y-53721000D01*
X79950919Y-46228000D02*
X81153000Y-46228000D01*
X58398000Y-46228000D02*
X79950919Y-46228000D01*
X55245000Y-49381000D02*
X58398000Y-46228000D01*
X55245000Y-51181000D02*
X55245000Y-49381000D01*
X58100546Y-118512990D02*
X75057000Y-118512990D01*
X54761001Y-115173445D02*
X58100546Y-118512990D01*
X53086000Y-107442000D02*
X53086000Y-110109000D01*
X54761001Y-111784001D02*
X54761001Y-115173445D01*
X53086000Y-110109000D02*
X54761001Y-111784001D01*
X75057000Y-118512990D02*
X75057000Y-118512990D01*
X78011130Y-123063000D02*
X54217370Y-123063000D01*
X81621601Y-126673471D02*
X78011130Y-123063000D01*
X54217370Y-123063000D02*
X53086000Y-123063000D01*
X81621601Y-130882529D02*
X81621601Y-126673471D01*
X80717529Y-131786601D02*
X81621601Y-130882529D01*
X79081601Y-131786601D02*
X80717529Y-131786601D01*
X77343000Y-130048000D02*
X79081601Y-131786601D01*
X72136000Y-107569000D02*
X72009000Y-107696000D01*
X53086000Y-115443000D02*
X53086000Y-112649000D01*
X75057000Y-119888000D02*
X75057000Y-119888000D01*
X57531000Y-119888000D02*
X53086000Y-115443000D01*
X75057000Y-119888000D02*
X57531000Y-119888000D01*
X77916611Y-133161611D02*
X74803000Y-130048000D01*
X81287076Y-133161611D02*
X77916611Y-133161611D01*
X56917990Y-121687990D02*
X78580677Y-121687990D01*
X82996611Y-126103924D02*
X82996611Y-131452076D01*
X82996611Y-131452076D02*
X81287076Y-133161611D01*
X53086000Y-117856000D02*
X56917990Y-121687990D01*
X78580677Y-121687990D02*
X82996611Y-126103924D01*
X64135000Y-133096000D02*
X67183000Y-130048000D01*
X64135000Y-136144000D02*
X64135000Y-133096000D01*
X79853001Y-150624001D02*
X82319000Y-153090000D01*
X79853001Y-144810999D02*
X79853001Y-150624001D01*
X69511001Y-134468999D02*
X79853001Y-144810999D01*
X64135000Y-136144000D02*
X65810001Y-134468999D01*
X65810001Y-134468999D02*
X69511001Y-134468999D01*
X59690000Y-135001000D02*
X64643000Y-130048000D01*
X59690000Y-136144000D02*
X59690000Y-135001000D01*
X56007000Y-136144000D02*
X62103000Y-130048000D01*
X55245000Y-136144000D02*
X56007000Y-136144000D01*
X58699401Y-130911599D02*
X59563000Y-130048000D01*
X55538399Y-131786601D02*
X57824399Y-131786601D01*
X57824399Y-131786601D02*
X58699401Y-130911599D01*
X51181000Y-136144000D02*
X55538399Y-131786601D01*
D22*
X55245000Y-160456000D02*
X55245000Y-162306000D01*
X55245000Y-156371998D02*
X55245000Y-160456000D01*
X53338001Y-154464999D02*
X55245000Y-156371998D01*
X52509997Y-154464999D02*
X53338001Y-154464999D01*
X45999401Y-147954403D02*
X47256999Y-149212001D01*
X45999401Y-130911599D02*
X45999401Y-147954403D01*
X46863000Y-130048000D02*
X45999401Y-130911599D01*
X47256999Y-149212001D02*
X52509997Y-154464999D01*
D21*
X46241441Y-102243001D02*
X49910451Y-98573990D01*
X49910451Y-98573990D02*
X53213000Y-98573990D01*
X56920001Y-67285999D02*
X56920001Y-69765001D01*
X62865000Y-61341000D02*
X56920001Y-67285999D01*
X56920001Y-69765001D02*
X55418023Y-71266979D01*
X55418023Y-71266979D02*
X47688339Y-71266979D01*
X47688339Y-71266979D02*
X42418000Y-76537318D01*
X43298999Y-102243001D02*
X46241441Y-102243001D01*
X42799000Y-102743000D02*
X43298999Y-102243001D01*
D22*
X54686001Y-108108003D02*
X54686001Y-106756001D01*
X56324500Y-109746502D02*
X54686001Y-108108003D01*
X53662999Y-105732999D02*
X53213000Y-105283000D01*
X54686001Y-106756001D02*
X53662999Y-105732999D01*
X56324500Y-113855500D02*
X56324500Y-109746502D01*
D21*
X42418000Y-76537318D02*
X42418000Y-90551000D01*
X62865000Y-83312000D02*
X62865000Y-83439000D01*
X62865000Y-83312000D02*
X62865000Y-83251002D01*
D22*
X61468000Y-115316000D02*
X62230000Y-114554000D01*
X62230000Y-114554000D02*
X73025000Y-114554000D01*
X73025000Y-114554000D02*
X73596500Y-113982500D01*
X76708000Y-107315000D02*
X76708000Y-104013000D01*
X76708000Y-104013000D02*
X74295000Y-101600000D01*
X74295000Y-101600000D02*
X74295000Y-101600000D01*
X73787000Y-72898000D02*
X73287001Y-72398001D01*
D21*
X61189999Y-81636999D02*
X62065001Y-82512001D01*
X63679997Y-72398001D02*
X61189999Y-74887999D01*
X62065001Y-82512001D02*
X62865000Y-83312000D01*
X61189999Y-74887999D02*
X61189999Y-81636999D01*
X73287001Y-72398001D02*
X63679997Y-72398001D01*
D22*
X62768000Y-116459000D02*
X73279000Y-116459000D01*
X73279000Y-116459000D02*
X74422000Y-115316000D01*
X78477999Y-103474999D02*
X76327000Y-101324000D01*
X77978000Y-108458000D02*
X78477999Y-107958001D01*
X78477999Y-107958001D02*
X78477999Y-103474999D01*
X64643000Y-60579000D02*
X62865000Y-58801000D01*
X73533000Y-60579000D02*
X64643000Y-60579000D01*
D21*
X62865000Y-63881000D02*
X66167000Y-67183000D01*
X66167000Y-67183000D02*
X66167000Y-67183000D01*
X66167000Y-85090000D02*
X62865000Y-88392000D01*
X66167000Y-84074000D02*
X66167000Y-85090000D01*
X61189999Y-90067001D02*
X62065001Y-89191999D01*
X61189999Y-95782001D02*
X61189999Y-90067001D01*
X56814991Y-98044000D02*
X58928000Y-98044000D01*
X62065001Y-89191999D02*
X62865000Y-88392000D01*
X58928000Y-98044000D02*
X61189999Y-95782001D01*
X68707000Y-143764000D02*
X63627000Y-143764000D01*
X63627000Y-143764000D02*
X64135000Y-143764000D01*
X64135000Y-143764000D02*
X59690000Y-143764000D01*
X59690000Y-143764000D02*
X55245000Y-143764000D01*
X55245000Y-143764000D02*
X51181000Y-143764000D01*
D22*
X79883000Y-127508000D02*
X80010000Y-127381000D01*
X80010000Y-127381000D02*
X79756000Y-127508000D01*
D21*
X55649000Y-148590000D02*
X52474000Y-151765000D01*
X62103000Y-148590000D02*
X55649000Y-148590000D01*
X75819000Y-148590000D02*
X68603000Y-148590000D01*
X63664999Y-91731999D02*
X62865000Y-90932000D01*
X81153000Y-98806000D02*
X74078999Y-91731999D01*
X74078999Y-91731999D02*
X63664999Y-91731999D01*
X42695000Y-151765000D02*
X45974000Y-151765000D01*
D22*
X76962000Y-124587000D02*
X76885999Y-124663001D01*
X37622001Y-122270999D02*
X35052000Y-124841000D01*
X42366000Y-125415902D02*
X39221097Y-122270999D01*
X39221097Y-122270999D02*
X37622001Y-122270999D01*
X76885999Y-124663001D02*
X45770999Y-124663001D01*
X45466000Y-124968000D02*
X45563000Y-124968000D01*
X45770999Y-124663001D02*
X45466000Y-124968000D01*
X44323000Y-126286686D02*
X44323000Y-127508000D01*
X43666000Y-125629686D02*
X44323000Y-126286686D01*
X43666000Y-125629686D02*
X43666000Y-118491000D01*
D21*
X56618548Y-96522011D02*
X49746971Y-96522011D01*
X58295011Y-94845548D02*
X56618548Y-96522011D01*
X58295011Y-90421989D02*
X58295011Y-94845548D01*
X62865000Y-85852000D02*
X58295011Y-90421989D01*
X49746971Y-96522011D02*
X45765991Y-100502991D01*
M02*
