G04 #@! TF.GenerationSoftware,KiCad,Pcbnew,(5.1.0)-1*
G04 #@! TF.CreationDate,2019-12-12T14:08:26-05:00*
G04 #@! TF.ProjectId,LEDMatrix,4c45444d-6174-4726-9978-2e6b69636164,rev?*
G04 #@! TF.SameCoordinates,Original*
G04 #@! TF.FileFunction,Legend,Bot*
G04 #@! TF.FilePolarity,Positive*
%FSLAX46Y46*%
G04 Gerber Fmt 4.6, Leading zero omitted, Abs format (unit mm)*
G04 Created by KiCad (PCBNEW (5.1.0)-1) date 2019-12-12 14:08:26*
%MOMM*%
%LPD*%
G04 APERTURE LIST*
%ADD10C,0.250000*%
%ADD11C,0.150000*%
%ADD12C,0.120000*%
G04 APERTURE END LIST*
D10*
X79913142Y-114482904D02*
X77056000Y-114482904D01*
X78484571Y-119482904D02*
X78484571Y-114482904D01*
X75389333Y-116863857D02*
X73722666Y-116863857D01*
X73008380Y-119482904D02*
X75389333Y-119482904D01*
X75389333Y-114482904D01*
X73008380Y-114482904D01*
X71579809Y-114482904D02*
X68722666Y-114482904D01*
X70151238Y-119482904D02*
X70151238Y-114482904D01*
X64198857Y-119482904D02*
X65865523Y-117101952D01*
X67056000Y-119482904D02*
X67056000Y-114482904D01*
X65151238Y-114482904D01*
X64675047Y-114721000D01*
X64436952Y-114959095D01*
X64198857Y-115435285D01*
X64198857Y-116149571D01*
X64436952Y-116625761D01*
X64675047Y-116863857D01*
X65151238Y-117101952D01*
X67056000Y-117101952D01*
X62056000Y-119482904D02*
X62056000Y-114482904D01*
X59913142Y-119244809D02*
X59198857Y-119482904D01*
X58008380Y-119482904D01*
X57532190Y-119244809D01*
X57294095Y-119006714D01*
X57056000Y-118530523D01*
X57056000Y-118054333D01*
X57294095Y-117578142D01*
X57532190Y-117340047D01*
X58008380Y-117101952D01*
X58960761Y-116863857D01*
X59436952Y-116625761D01*
X59675047Y-116387666D01*
X59913142Y-115911476D01*
X59913142Y-115435285D01*
X59675047Y-114959095D01*
X59436952Y-114721000D01*
X58960761Y-114482904D01*
X57770285Y-114482904D01*
X57056000Y-114721000D01*
X54913142Y-119006714D02*
X54675047Y-119244809D01*
X54913142Y-119482904D01*
X55151238Y-119244809D01*
X54913142Y-119006714D01*
X54913142Y-119482904D01*
X54913142Y-117578142D02*
X55151238Y-114721000D01*
X54913142Y-114482904D01*
X54675047Y-114721000D01*
X54913142Y-117578142D01*
X54913142Y-114482904D01*
D11*
X73590000Y-43180000D02*
X73590000Y-44450000D01*
X72320000Y-43180000D02*
X72320000Y-44450000D01*
X74860000Y-43180000D02*
X74860000Y-41910000D01*
X76130000Y-43180000D02*
X74860000Y-43180000D01*
X76130000Y-41910000D02*
X76130000Y-43180000D01*
X73590000Y-41910000D02*
X76130000Y-41910000D01*
X72320000Y-43180000D02*
X73590000Y-43180000D01*
X73590000Y-43180000D02*
X74860000Y-43180000D01*
X73590000Y-41910000D02*
X73590000Y-43180000D01*
X74860000Y-44450000D02*
X74860000Y-43180000D01*
X72320000Y-44450000D02*
X74860000Y-44450000D01*
X43110000Y-44450000D02*
X43110000Y-41910000D01*
X44380000Y-44450000D02*
X43110000Y-44450000D01*
X43110000Y-43180000D02*
X44380000Y-43180000D01*
X41840000Y-43180000D02*
X43110000Y-43180000D01*
X41840000Y-41910000D02*
X41840000Y-43180000D01*
X44380000Y-41910000D02*
X41840000Y-41910000D01*
X44380000Y-43180000D02*
X44380000Y-41910000D01*
X45650000Y-43180000D02*
X45650000Y-44450000D01*
X44380000Y-43180000D02*
X45650000Y-43180000D01*
X44380000Y-44450000D02*
X44380000Y-43180000D01*
X45650000Y-44450000D02*
X44380000Y-44450000D01*
X48190000Y-43180000D02*
X48190000Y-44450000D01*
X46920000Y-43180000D02*
X48190000Y-43180000D01*
X49460000Y-43180000D02*
X48190000Y-43180000D01*
X48190000Y-43180000D02*
X49460000Y-43180000D01*
X48190000Y-41910000D02*
X48190000Y-43180000D01*
X49460000Y-44450000D02*
X49460000Y-41910000D01*
X46920000Y-44450000D02*
X49460000Y-44450000D01*
X46920000Y-41910000D02*
X46920000Y-44450000D01*
X49460000Y-41910000D02*
X46920000Y-41910000D01*
X69780000Y-44450000D02*
X68510000Y-44450000D01*
X69780000Y-43180000D02*
X69780000Y-44450000D01*
X69780000Y-44450000D02*
X69780000Y-43180000D01*
X71050000Y-44450000D02*
X69780000Y-44450000D01*
X71050000Y-43180000D02*
X71050000Y-44450000D01*
X68510000Y-43180000D02*
X71050000Y-43180000D01*
X68510000Y-44450000D02*
X68510000Y-43180000D01*
X67240000Y-44450000D02*
X68510000Y-44450000D01*
X68510000Y-43180000D02*
X67240000Y-43180000D01*
X68510000Y-41910000D02*
X68510000Y-43180000D01*
X67240000Y-41910000D02*
X68510000Y-41910000D01*
X67240000Y-44450000D02*
X67240000Y-41910000D01*
X54540000Y-43180000D02*
X54540000Y-41910000D01*
X52000000Y-44450000D02*
X52000000Y-43180000D01*
X53270000Y-43180000D02*
X53270000Y-44450000D01*
X52000000Y-43180000D02*
X53270000Y-43180000D01*
X50730000Y-43180000D02*
X52000000Y-43180000D01*
X50730000Y-44450000D02*
X50730000Y-43180000D01*
X52000000Y-44450000D02*
X50730000Y-44450000D01*
X53270000Y-44450000D02*
X52000000Y-44450000D01*
X54540000Y-44450000D02*
X53270000Y-44450000D01*
X54540000Y-43180000D02*
X54540000Y-44450000D01*
X53270000Y-43180000D02*
X54540000Y-43180000D01*
X53270000Y-41910000D02*
X53270000Y-43180000D01*
X54540000Y-41910000D02*
X53270000Y-41910000D01*
X55810000Y-43180000D02*
X57080000Y-43180000D01*
X55810000Y-44450000D02*
X55810000Y-43180000D01*
X57080000Y-44450000D02*
X55810000Y-44450000D01*
X57080000Y-43180000D02*
X57080000Y-44450000D01*
X57080000Y-44450000D02*
X58350000Y-44450000D01*
X58350000Y-41910000D02*
X58350000Y-44450000D01*
X57080000Y-41910000D02*
X58350000Y-41910000D01*
X57080000Y-43180000D02*
X57080000Y-41910000D01*
X58350000Y-43180000D02*
X57080000Y-43180000D01*
X58350000Y-43180000D02*
X58350000Y-44450000D01*
X59620000Y-44450000D02*
X58350000Y-44450000D01*
X58350000Y-43180000D02*
X59620000Y-43180000D01*
X59620000Y-44450000D02*
X59620000Y-43180000D01*
X65970000Y-44450000D02*
X64700000Y-44450000D01*
X65970000Y-43180000D02*
X65970000Y-44450000D01*
X64700000Y-43180000D02*
X65970000Y-43180000D01*
X64700000Y-44450000D02*
X63430000Y-44450000D01*
X64700000Y-43180000D02*
X64700000Y-44450000D01*
X63430000Y-43180000D02*
X64700000Y-43180000D01*
X63430000Y-44450000D02*
X62160000Y-44450000D01*
X63430000Y-43180000D02*
X63430000Y-44450000D01*
X62160000Y-43180000D02*
X63430000Y-43180000D01*
X62160000Y-44450000D02*
X62160000Y-43180000D01*
X60890000Y-44450000D02*
X62160000Y-44450000D01*
X60890000Y-43180000D02*
X60890000Y-44450000D01*
X62160000Y-43180000D02*
X60890000Y-43180000D01*
D12*
X50141000Y-136684000D02*
X49811000Y-136684000D01*
X49811000Y-136684000D02*
X49811000Y-143224000D01*
X49811000Y-143224000D02*
X50141000Y-143224000D01*
X52221000Y-136684000D02*
X52551000Y-136684000D01*
X52551000Y-136684000D02*
X52551000Y-143224000D01*
X52551000Y-143224000D02*
X52221000Y-143224000D01*
X56615000Y-143224000D02*
X56285000Y-143224000D01*
X56615000Y-136684000D02*
X56615000Y-143224000D01*
X56285000Y-136684000D02*
X56615000Y-136684000D01*
X53875000Y-143224000D02*
X54205000Y-143224000D01*
X53875000Y-136684000D02*
X53875000Y-143224000D01*
X54205000Y-136684000D02*
X53875000Y-136684000D01*
X61060000Y-143224000D02*
X60730000Y-143224000D01*
X61060000Y-136684000D02*
X61060000Y-143224000D01*
X60730000Y-136684000D02*
X61060000Y-136684000D01*
X58320000Y-143224000D02*
X58650000Y-143224000D01*
X58320000Y-136684000D02*
X58320000Y-143224000D01*
X58650000Y-136684000D02*
X58320000Y-136684000D01*
X63095000Y-136684000D02*
X62765000Y-136684000D01*
X62765000Y-136684000D02*
X62765000Y-143224000D01*
X62765000Y-143224000D02*
X63095000Y-143224000D01*
X65175000Y-136684000D02*
X65505000Y-136684000D01*
X65505000Y-136684000D02*
X65505000Y-143224000D01*
X65505000Y-143224000D02*
X65175000Y-143224000D01*
X67667000Y-136684000D02*
X67337000Y-136684000D01*
X67337000Y-136684000D02*
X67337000Y-143224000D01*
X67337000Y-143224000D02*
X67667000Y-143224000D01*
X69747000Y-136684000D02*
X70077000Y-136684000D01*
X70077000Y-136684000D02*
X70077000Y-143224000D01*
X70077000Y-143224000D02*
X69747000Y-143224000D01*
D11*
X49474380Y-136898142D02*
X48998190Y-136564809D01*
X49474380Y-136326714D02*
X48474380Y-136326714D01*
X48474380Y-136707666D01*
X48522000Y-136802904D01*
X48569619Y-136850523D01*
X48664857Y-136898142D01*
X48807714Y-136898142D01*
X48902952Y-136850523D01*
X48950571Y-136802904D01*
X48998190Y-136707666D01*
X48998190Y-136326714D01*
X49474380Y-137850523D02*
X49474380Y-137279095D01*
X49474380Y-137564809D02*
X48474380Y-137564809D01*
X48617238Y-137469571D01*
X48712476Y-137374333D01*
X48760095Y-137279095D01*
X48474380Y-138469571D02*
X48474380Y-138564809D01*
X48522000Y-138660047D01*
X48569619Y-138707666D01*
X48664857Y-138755285D01*
X48855333Y-138802904D01*
X49093428Y-138802904D01*
X49283904Y-138755285D01*
X49379142Y-138707666D01*
X49426761Y-138660047D01*
X49474380Y-138564809D01*
X49474380Y-138469571D01*
X49426761Y-138374333D01*
X49379142Y-138326714D01*
X49283904Y-138279095D01*
X49093428Y-138231476D01*
X48855333Y-138231476D01*
X48664857Y-138279095D01*
X48569619Y-138326714D01*
X48522000Y-138374333D01*
X48474380Y-138469571D01*
X53919380Y-137025142D02*
X53443190Y-136691809D01*
X53919380Y-136453714D02*
X52919380Y-136453714D01*
X52919380Y-136834666D01*
X52967000Y-136929904D01*
X53014619Y-136977523D01*
X53109857Y-137025142D01*
X53252714Y-137025142D01*
X53347952Y-136977523D01*
X53395571Y-136929904D01*
X53443190Y-136834666D01*
X53443190Y-136453714D01*
X53919380Y-137977523D02*
X53919380Y-137406095D01*
X53919380Y-137691809D02*
X52919380Y-137691809D01*
X53062238Y-137596571D01*
X53157476Y-137501333D01*
X53205095Y-137406095D01*
X53919380Y-138929904D02*
X53919380Y-138358476D01*
X53919380Y-138644190D02*
X52919380Y-138644190D01*
X53062238Y-138548952D01*
X53157476Y-138453714D01*
X53205095Y-138358476D01*
X57983380Y-137025142D02*
X57507190Y-136691809D01*
X57983380Y-136453714D02*
X56983380Y-136453714D01*
X56983380Y-136834666D01*
X57031000Y-136929904D01*
X57078619Y-136977523D01*
X57173857Y-137025142D01*
X57316714Y-137025142D01*
X57411952Y-136977523D01*
X57459571Y-136929904D01*
X57507190Y-136834666D01*
X57507190Y-136453714D01*
X57983380Y-137977523D02*
X57983380Y-137406095D01*
X57983380Y-137691809D02*
X56983380Y-137691809D01*
X57126238Y-137596571D01*
X57221476Y-137501333D01*
X57269095Y-137406095D01*
X57078619Y-138358476D02*
X57031000Y-138406095D01*
X56983380Y-138501333D01*
X56983380Y-138739428D01*
X57031000Y-138834666D01*
X57078619Y-138882285D01*
X57173857Y-138929904D01*
X57269095Y-138929904D01*
X57411952Y-138882285D01*
X57983380Y-138310857D01*
X57983380Y-138929904D01*
X62428380Y-136771142D02*
X61952190Y-136437809D01*
X62428380Y-136199714D02*
X61428380Y-136199714D01*
X61428380Y-136580666D01*
X61476000Y-136675904D01*
X61523619Y-136723523D01*
X61618857Y-136771142D01*
X61761714Y-136771142D01*
X61856952Y-136723523D01*
X61904571Y-136675904D01*
X61952190Y-136580666D01*
X61952190Y-136199714D01*
X62428380Y-137723523D02*
X62428380Y-137152095D01*
X62428380Y-137437809D02*
X61428380Y-137437809D01*
X61571238Y-137342571D01*
X61666476Y-137247333D01*
X61714095Y-137152095D01*
X61428380Y-138056857D02*
X61428380Y-138675904D01*
X61809333Y-138342571D01*
X61809333Y-138485428D01*
X61856952Y-138580666D01*
X61904571Y-138628285D01*
X61999809Y-138675904D01*
X62237904Y-138675904D01*
X62333142Y-138628285D01*
X62380761Y-138580666D01*
X62428380Y-138485428D01*
X62428380Y-138199714D01*
X62380761Y-138104476D01*
X62333142Y-138056857D01*
X67000380Y-137025142D02*
X66524190Y-136691809D01*
X67000380Y-136453714D02*
X66000380Y-136453714D01*
X66000380Y-136834666D01*
X66048000Y-136929904D01*
X66095619Y-136977523D01*
X66190857Y-137025142D01*
X66333714Y-137025142D01*
X66428952Y-136977523D01*
X66476571Y-136929904D01*
X66524190Y-136834666D01*
X66524190Y-136453714D01*
X67000380Y-137977523D02*
X67000380Y-137406095D01*
X67000380Y-137691809D02*
X66000380Y-137691809D01*
X66143238Y-137596571D01*
X66238476Y-137501333D01*
X66286095Y-137406095D01*
X66333714Y-138834666D02*
X67000380Y-138834666D01*
X65952761Y-138596571D02*
X66667047Y-138358476D01*
X66667047Y-138977523D01*
M02*
