M48
; DRILL file {KiCad (5.1.0)-1} date 12/12/2019 2:08:23 PM
; FORMAT={-:-/ absolute / inch / decimal}
; #@! TF.CreationDate,2019-12-12T14:08:23-05:00
; #@! TF.GenerationSoftware,Kicad,Pcbnew,(5.1.0)-1
; #@! TF.FileFunction,Plated,1,2,PTH
FMAT,2
INCH
T1C0.0157
T2C0.0315
T3C0.0394
T4C0.0400
T5C0.0433
%
G90
G05
T1
X1.38Y-4.915
X1.4794Y-4.1394
X1.505Y-4.865
X1.51Y-2.335
X1.5496Y-4.1459
X1.6253Y-4.145
X1.668Y-4.9376
X1.67Y-3.565
X1.6708Y-2.0192
X1.685Y-4.045
X1.7191Y-4.665
X1.7477Y-3.04
X1.785Y-2.42
X1.7938Y-4.92
X1.8018Y-3.9568
X1.9101Y-2.42
X1.9662Y-3.9562
X2.085Y-3.64
X2.095Y-3.8809
X2.095Y-4.145
X2.2175Y-4.4825
X2.2368Y-3.86
X2.4091Y-2.7991
X2.42Y-4.54
X2.4349Y-4.0551
X2.4712Y-4.585
X2.48Y-3.785
X2.605Y-2.645
X2.605Y-3.31
X2.7317Y-2.235
X2.76Y-1.92
X2.7859Y-2.12
X2.895Y-2.385
X2.8975Y-4.4875
X2.905Y-2.87
X2.925Y-4.0
X2.93Y-4.54
X2.955Y-4.6659
X2.955Y-4.72
X3.005Y-3.9891
X3.02Y-4.225
X3.03Y-4.905
X3.07Y-4.27
X3.195Y-3.89
T2
X2.43Y-3.935
X2.43Y-4.235
X1.395Y-4.0
X1.395Y-4.1
X1.395Y-4.2
X1.395Y-4.3
X1.395Y-4.4
X1.395Y-4.5
X1.395Y-4.6
X1.395Y-4.7
X3.195Y-4.0
X3.195Y-4.1
X3.195Y-4.2
X3.195Y-4.3
X3.195Y-4.4
X3.195Y-4.5
X3.195Y-4.6
X3.195Y-4.7
X2.84Y-3.935
X2.84Y-4.235
X1.79Y-4.845
X2.09Y-4.845
X1.79Y-4.23
X2.09Y-4.23
X1.395Y-1.62
X1.395Y-1.72
X1.395Y-1.82
X1.395Y-1.92
X1.395Y-2.02
X1.395Y-2.12
X1.395Y-2.22
X1.395Y-2.32
X3.195Y-1.62
X3.195Y-1.72
X3.195Y-1.82
X3.195Y-1.92
X3.195Y-2.02
X3.195Y-2.12
X3.195Y-2.22
X3.195Y-2.32
X2.175Y-5.36
X2.175Y-5.66
X2.175Y-2.015
X2.175Y-2.115
X2.175Y-2.215
X2.175Y-2.315
X2.175Y-2.415
X2.175Y-2.515
X2.175Y-2.615
X2.175Y-2.715
X2.475Y-2.015
X2.475Y-2.115
X2.475Y-2.215
X2.475Y-2.315
X2.475Y-2.415
X2.475Y-2.515
X2.475Y-2.615
X2.475Y-2.715
X2.35Y-5.36
X2.35Y-5.66
X2.175Y-2.98
X2.175Y-3.08
X2.175Y-3.18
X2.175Y-3.28
X2.175Y-3.38
X2.175Y-3.48
X2.175Y-3.58
X2.175Y-3.68
X2.475Y-2.98
X2.475Y-3.08
X2.475Y-3.18
X2.475Y-3.28
X2.475Y-3.38
X2.475Y-3.48
X2.475Y-3.58
X2.475Y-3.68
X2.525Y-5.36
X2.525Y-5.66
X2.225Y-3.935
X2.225Y-4.235
X1.79Y-4.64
X2.09Y-4.64
X1.79Y-4.435
X2.09Y-4.435
X2.635Y-3.935
X2.635Y-4.235
X2.015Y-5.36
X2.015Y-5.66
X2.705Y-5.36
X2.705Y-5.66
T3
X2.175Y-6.39
X2.4742Y-6.39
X3.145Y-2.46
X3.145Y-2.56
T4
X1.445Y-5.02
X1.445Y-5.12
X1.545Y-5.02
X1.545Y-5.12
X1.645Y-5.02
X1.645Y-5.12
X1.745Y-5.02
X1.745Y-5.12
X1.845Y-5.02
X1.845Y-5.12
X1.945Y-5.02
X1.945Y-5.12
X2.045Y-5.02
X2.045Y-5.12
X2.145Y-5.02
X2.145Y-5.12
X2.245Y-5.02
X2.245Y-5.12
X2.345Y-5.02
X2.345Y-5.12
X2.445Y-5.02
X2.445Y-5.12
X2.545Y-5.02
X2.545Y-5.12
X2.645Y-5.02
X2.645Y-5.12
X2.745Y-5.02
X2.745Y-5.12
X2.845Y-5.02
X2.845Y-5.12
X2.945Y-5.02
X2.945Y-5.12
X3.045Y-5.02
X3.045Y-5.12
X3.145Y-5.02
X3.145Y-5.12
T5
X2.445Y-5.85
X2.445Y-6.0272
X2.7009Y-5.85
X2.7009Y-6.0272
X2.73Y-6.2
X2.73Y-6.3772
X2.9859Y-6.2
X2.9859Y-6.3772
X1.81Y-5.975
X1.81Y-6.1522
X2.0659Y-5.975
X2.0659Y-6.1522
X2.985Y-5.85
X2.985Y-6.0272
X3.2409Y-5.85
X3.2409Y-6.0272
X1.425Y-5.975
X1.425Y-6.1522
X1.6809Y-5.975
X1.6809Y-6.1522
T0
M30
